<?xml version="1.0" encoding="UTF-8" standalone="no"?>
<!-- Created with Inkscape (http://www.inkscape.org/) -->

<svg
   xmlns:dc="http://purl.org/dc/elements/1.1/"
   xmlns:cc="http://creativecommons.org/ns#"
   xmlns:rdf="http://www.w3.org/1999/02/22-rdf-syntax-ns#"
   xmlns:svg="http://www.w3.org/2000/svg"
   xmlns="http://www.w3.org/2000/svg"
   xmlns:inkscape="http://www.inkscape.org/namespaces/inkscape"
   version="1.1"
   width="518.25"
   height="611.09998"
   id="svg2"
   xml:space="preserve"><metadata
     id="metadata8"><rdf:RDF><cc:Work
         rdf:about=""><dc:format>image/svg+xml</dc:format><dc:type
           rdf:resource="http://purl.org/dc/dcmitype/StillImage" /></cc:Work></rdf:RDF></metadata><defs
     id="defs6" /><g
     transform="matrix(1.25,0,0,-1.25,0,611.1)"
     id="g10"><g
       transform="scale(0.1,0.1)"
       id="g12"><g
         transform="scale(10,10)"
         id="g14"><text
           transform="matrix(1,0,0,-1,0.3,381.251)"
           id="text16"><tspan
             x="0 8.6639996 15.336 23.34 32.004002 38.675999"
             y="0"
             id="tspan18"
             style="font-size:12px;font-variant:normal;font-weight:normal;writing-mode:lr-tb;fill:#000000;fill-opacity:1;fill-rule:nonzero;stroke:none;font-family:Serif;-inkscape-font-specification:Serif">ASBASE</tspan><tspan
             x="0 6 11.328 17.327999 24.66 27.996 32.664001"
             y="15"
             id="tspan20"
             style="font-size:12px;font-variant:normal;font-weight:normal;writing-mode:lr-tb;fill:#000000;fill-opacity:1;fill-rule:nonzero;stroke:none;font-family:Serif;-inkscape-font-specification:Serif">uagList</tspan><tspan
             x="0 6 11.328 17.327999 24.66 27.996 32.664001"
             y="30"
             id="tspan22"
             style="font-size:12px;font-variant:normal;font-weight:normal;writing-mode:lr-tb;fill:#000000;fill-opacity:1;fill-rule:nonzero;stroke:none;font-family:Serif;-inkscape-font-specification:Serif">hagList</tspan><tspan
             x="0 5.3280001 9.9960003 15.996 23.327999 26.664 31.332001"
             y="45"
             id="tspan24"
             style="font-size:12px;font-variant:normal;font-weight:normal;writing-mode:lr-tb;fill:#000000;fill-opacity:1;fill-rule:nonzero;stroke:none;font-family:Serif;-inkscape-font-specification:Serif">asgList</tspan><tspan
             x="0 6 12 17.327999 21.996"
             y="60"
             id="tspan26"
             style="font-size:12px;font-variant:normal;font-weight:normal;writing-mode:lr-tb;fill:#000000;fill-opacity:1;fill-rule:nonzero;stroke:none;font-family:Serif;-inkscape-font-specification:Serif">phash</tspan></text>
</g><path
         d="m 3,3172.51 540,0 0,720 -540,0 0,-720 z"
         inkscape:connector-curvature="0"
         id="path28"
         style="fill:none;stroke:#000000;stroke-width:6;stroke-linecap:square;stroke-linejoin:miter;stroke-miterlimit:10;stroke-opacity:1;stroke-dasharray:none" /><g
         transform="scale(10,10)"
         id="g30"><text
           transform="matrix(1,0,0,-1,81.3,336.251)"
           id="text32"><tspan
             x="0 8.6639996 15.336"
             y="0"
             id="tspan34"
             style="font-size:12px;font-variant:normal;font-weight:normal;writing-mode:lr-tb;fill:#000000;fill-opacity:1;fill-rule:nonzero;stroke:none;font-family:Serif;-inkscape-font-specification:Serif">ASG</tspan><tspan
             x="0 6 12 18"
             y="15"
             id="tspan36"
             style="font-size:12px;font-variant:normal;font-weight:normal;writing-mode:lr-tb;fill:#000000;fill-opacity:1;fill-rule:nonzero;stroke:none;font-family:Serif;-inkscape-font-specification:Serif">node</tspan><tspan
             x="0 6 11.328 20.664"
             y="30"
             id="tspan38"
             style="font-size:12px;font-variant:normal;font-weight:normal;writing-mode:lr-tb;fill:#000000;fill-opacity:1;fill-rule:nonzero;stroke:none;font-family:Serif;-inkscape-font-specification:Serif">name</tspan><tspan
             x="0 3.336 9.3360004 15.336 22.667999 26.004 30.672001"
             y="45"
             id="tspan40"
             style="font-size:12px;font-variant:normal;font-weight:normal;writing-mode:lr-tb;fill:#000000;fill-opacity:1;fill-rule:nonzero;stroke:none;font-family:Serif;-inkscape-font-specification:Serif">inpList</tspan><tspan
             x="0 3.9960001 9.9960003 13.332 18.66 25.992001 29.327999 33.995998"
             y="60"
             id="tspan42"
             style="font-size:12px;font-variant:normal;font-weight:normal;writing-mode:lr-tb;fill:#000000;fill-opacity:1;fill-rule:nonzero;stroke:none;font-family:Serif;-inkscape-font-specification:Serif">ruleList</tspan><tspan
             x="0 9.3360004 14.664 24 30 35.327999 39.324001 46.655998 49.992001 54.66"
             y="75"
             id="tspan44"
             style="font-size:12px;font-variant:normal;font-weight:normal;writing-mode:lr-tb;fill:#000000;fill-opacity:1;fill-rule:nonzero;stroke:none;font-family:Serif;-inkscape-font-specification:Serif">memberList</tspan><tspan
             x="0 6 11.328 17.327999 22.656 25.992001 31.992001"
             y="90"
             id="tspan46"
             style="font-size:12px;font-variant:normal;font-weight:normal;writing-mode:lr-tb;fill:#000000;fill-opacity:1;fill-rule:nonzero;stroke:none;font-family:Serif;-inkscape-font-specification:Serif">pavalue</tspan><tspan
             x="0 3.336 9.3360004 15.336 23.34 28.667999"
             y="105"
             id="tspan48"
             style="font-size:12px;font-variant:normal;font-weight:normal;writing-mode:lr-tb;fill:#000000;fill-opacity:1;fill-rule:nonzero;stroke:none;font-family:Serif;-inkscape-font-specification:Serif">inpBad</tspan><tspan
             x="0 3.336 9.3360004 15.336 23.34 29.34 34.667999 40.667999 46.667999 51.995998"
             y="120"
             id="tspan50"
             style="font-size:12px;font-variant:normal;font-weight:normal;writing-mode:lr-tb;fill:#000000;fill-opacity:1;fill-rule:nonzero;stroke:none;font-family:Serif;-inkscape-font-specification:Serif">inpChanged</tspan></text>
</g><path
         d="m 813,2102.51 720,0 0,1340 -720,0 0,-1340 z"
         inkscape:connector-curvature="0"
         id="path52"
         style="fill:none;stroke:#000000;stroke-width:6;stroke-linecap:square;stroke-linejoin:miter;stroke-miterlimit:10;stroke-opacity:1;stroke-dasharray:none" /><g
         transform="scale(10,10)"
         id="g54"><text
           transform="matrix(1,0,0,-1,90.3,480.251)"
           id="text56"><tspan
             x="0 8.6639996 17.327999"
             y="0"
             id="tspan58"
             style="font-size:12px;font-variant:normal;font-weight:normal;writing-mode:lr-tb;fill:#000000;fill-opacity:1;fill-rule:nonzero;stroke:none;font-family:Serif;-inkscape-font-specification:Serif">UAG</tspan><tspan
             x="0 6 12 18"
             y="15"
             id="tspan60"
             style="font-size:12px;font-variant:normal;font-weight:normal;writing-mode:lr-tb;fill:#000000;fill-opacity:1;fill-rule:nonzero;stroke:none;font-family:Serif;-inkscape-font-specification:Serif">node</tspan><tspan
             x="0 6 11.328 20.664"
             y="30"
             id="tspan62"
             style="font-size:12px;font-variant:normal;font-weight:normal;writing-mode:lr-tb;fill:#000000;fill-opacity:1;fill-rule:nonzero;stroke:none;font-family:Serif;-inkscape-font-specification:Serif">name</tspan><tspan
             x="0 3.336 6.6719999 11.34"
             y="45"
             id="tspan64"
             style="font-size:12px;font-variant:normal;font-weight:normal;writing-mode:lr-tb;fill:#000000;fill-opacity:1;fill-rule:nonzero;stroke:none;font-family:Serif;-inkscape-font-specification:Serif">list</tspan></text>
</g><path
         d="m 903,4342.51 450,0 0,540 -450,0 0,-540 z"
         inkscape:connector-curvature="0"
         id="path66"
         style="fill:none;stroke:#000000;stroke-width:6;stroke-linecap:square;stroke-linejoin:miter;stroke-miterlimit:10;stroke-opacity:1;stroke-dasharray:none" /><g
         transform="scale(10,10)"
         id="g68"><text
           transform="matrix(1,0,0,-1,90.3,408.251)"
           id="text70"><tspan
             x="0 8.6639996 17.327999"
             y="0"
             id="tspan72"
             style="font-size:12px;font-variant:normal;font-weight:normal;writing-mode:lr-tb;fill:#000000;fill-opacity:1;fill-rule:nonzero;stroke:none;font-family:Serif;-inkscape-font-specification:Serif">HAG</tspan><tspan
             x="0 6 12 18"
             y="15"
             id="tspan74"
             style="font-size:12px;font-variant:normal;font-weight:normal;writing-mode:lr-tb;fill:#000000;fill-opacity:1;fill-rule:nonzero;stroke:none;font-family:Serif;-inkscape-font-specification:Serif">node</tspan><tspan
             x="0 6 11.328 20.664"
             y="30"
             id="tspan76"
             style="font-size:12px;font-variant:normal;font-weight:normal;writing-mode:lr-tb;fill:#000000;fill-opacity:1;fill-rule:nonzero;stroke:none;font-family:Serif;-inkscape-font-specification:Serif">name</tspan><tspan
             x="0 3.336 6.6719999 11.34"
             y="45"
             id="tspan78"
             style="font-size:12px;font-variant:normal;font-weight:normal;writing-mode:lr-tb;fill:#000000;fill-opacity:1;fill-rule:nonzero;stroke:none;font-family:Serif;-inkscape-font-specification:Serif">list</tspan></text>
</g><path
         d="m 903,3622.51 450,0 0,540 -450,0 0,-540 z"
         inkscape:connector-curvature="0"
         id="path80"
         style="fill:none;stroke:#000000;stroke-width:6;stroke-linecap:square;stroke-linejoin:miter;stroke-miterlimit:10;stroke-opacity:1;stroke-dasharray:none" /><g
         transform="scale(10,10)"
         id="g82"><text
           transform="matrix(1,0,0,-1,162.3,471.251)"
           id="text84"><tspan
             x="0 8.6639996 17.327999 25.992001 34.655998 43.32 53.987999"
             y="0"
             id="tspan86"
             style="font-size:12px;font-variant:normal;font-weight:normal;writing-mode:lr-tb;fill:#000000;fill-opacity:1;fill-rule:nonzero;stroke:none;font-family:Serif;-inkscape-font-specification:Serif">UAGNAME</tspan><tspan
             x="0 6 12 18"
             y="15"
             id="tspan88"
             style="font-size:12px;font-variant:normal;font-weight:normal;writing-mode:lr-tb;fill:#000000;fill-opacity:1;fill-rule:nonzero;stroke:none;font-family:Serif;-inkscape-font-specification:Serif">node</tspan><tspan
             x="0 6 10.668 15.996"
             y="30"
             id="tspan90"
             style="font-size:12px;font-variant:normal;font-weight:normal;writing-mode:lr-tb;fill:#000000;fill-opacity:1;fill-rule:nonzero;stroke:none;font-family:Serif;-inkscape-font-specification:Serif">user</tspan></text>
</g><path
         d="m 1623,4375.37 630,0 0,417.141 -630,0 0,-417.141 z"
         inkscape:connector-curvature="0"
         id="path92"
         style="fill:none;stroke:#000000;stroke-width:6;stroke-linecap:square;stroke-linejoin:miter;stroke-miterlimit:10;stroke-opacity:1;stroke-dasharray:none" /><g
         transform="scale(10,10)"
         id="g94"><text
           transform="matrix(1,0,0,-1,162.3,399.251)"
           id="text96"><tspan
             x="0 8.6639996 17.327999 25.992001 34.655998 43.32 53.987999"
             y="0"
             id="tspan98"
             style="font-size:12px;font-variant:normal;font-weight:normal;writing-mode:lr-tb;fill:#000000;fill-opacity:1;fill-rule:nonzero;stroke:none;font-family:Serif;-inkscape-font-specification:Serif">HAGNAME</tspan><tspan
             x="0 6 12 18"
             y="15"
             id="tspan100"
             style="font-size:12px;font-variant:normal;font-weight:normal;writing-mode:lr-tb;fill:#000000;fill-opacity:1;fill-rule:nonzero;stroke:none;font-family:Serif;-inkscape-font-specification:Serif">node</tspan><tspan
             x="0 6 12 16.667999"
             y="30"
             id="tspan102"
             style="font-size:12px;font-variant:normal;font-weight:normal;writing-mode:lr-tb;fill:#000000;fill-opacity:1;fill-rule:nonzero;stroke:none;font-family:Serif;-inkscape-font-specification:Serif">host</tspan></text>
</g><path
         d="m 1623,3655.37 630,0 0,417.141 -630,0 0,-417.141 z"
         inkscape:connector-curvature="0"
         id="path104"
         style="fill:none;stroke:#000000;stroke-width:6;stroke-linecap:square;stroke-linejoin:miter;stroke-miterlimit:10;stroke-opacity:1;stroke-dasharray:none" /><g
         transform="scale(10,10)"
         id="g106"><text
           transform="matrix(1,0,0,-1,207.3,354.251)"
           id="text108"><tspan
             x="0 8.6639996 15.336 24 27.996 36.66"
             y="0"
             id="tspan110"
             style="font-size:12px;font-variant:normal;font-weight:normal;writing-mode:lr-tb;fill:#000000;fill-opacity:1;fill-rule:nonzero;stroke:none;font-family:Serif;-inkscape-font-specification:Serif">ASGINP</tspan><tspan
             x="0 6 12 18"
             y="15"
             id="tspan112"
             style="font-size:12px;font-variant:normal;font-weight:normal;writing-mode:lr-tb;fill:#000000;fill-opacity:1;fill-rule:nonzero;stroke:none;font-family:Serif;-inkscape-font-specification:Serif">node</tspan><tspan
             x="0 3.336 9.3360004"
             y="30"
             id="tspan114"
             style="font-size:12px;font-variant:normal;font-weight:normal;writing-mode:lr-tb;fill:#000000;fill-opacity:1;fill-rule:nonzero;stroke:none;font-family:Serif;-inkscape-font-specification:Serif">inp</tspan><tspan
             x="0 5.3280001 10.656 16.656 22.656"
             y="45"
             id="tspan116"
             style="font-size:12px;font-variant:normal;font-weight:normal;writing-mode:lr-tb;fill:#000000;fill-opacity:1;fill-rule:nonzero;stroke:none;font-family:Serif;-inkscape-font-specification:Serif">capvt</tspan><tspan
             x="0 6 11.328 15.996"
             y="60"
             id="tspan118"
             style="font-size:12px;font-variant:normal;font-weight:normal;writing-mode:lr-tb;fill:#000000;fill-opacity:1;fill-rule:nonzero;stroke:none;font-family:Serif;-inkscape-font-specification:Serif">pasg</tspan><tspan
             x="0 3.336 9.3360004 15.336 19.332001 25.332001 31.332001 36.66"
             y="75"
             id="tspan120"
             style="font-size:12px;font-variant:normal;font-weight:normal;writing-mode:lr-tb;fill:#000000;fill-opacity:1;fill-rule:nonzero;stroke:none;font-family:Serif;-inkscape-font-specification:Serif">inpIndex</tspan></text>
</g><path
         d="m 2073,2812.51 540,0 0,810 -540,0 0,-810 z"
         inkscape:connector-curvature="0"
         id="path122"
         style="fill:none;stroke:#000000;stroke-width:6;stroke-linecap:square;stroke-linejoin:miter;stroke-miterlimit:10;stroke-opacity:1;stroke-dasharray:none" /><g
         transform="scale(10,10)"
         id="g124"><text
           transform="matrix(1,0,0,-1,207.3,255.251)"
           id="text126"><tspan
             x="0 8.6639996 15.336 24 32.004002 40.667999 48"
             y="0"
             id="tspan128"
             style="font-size:12px;font-variant:normal;font-weight:normal;writing-mode:lr-tb;fill:#000000;fill-opacity:1;fill-rule:nonzero;stroke:none;font-family:Serif;-inkscape-font-specification:Serif">ASGRULE</tspan><tspan
             x="0 6 12 18"
             y="15"
             id="tspan130"
             style="font-size:12px;font-variant:normal;font-weight:normal;writing-mode:lr-tb;fill:#000000;fill-opacity:1;fill-rule:nonzero;stroke:none;font-family:Serif;-inkscape-font-specification:Serif">node</tspan><tspan
             x="0 5.3280001 10.656 15.984 21.312 25.98"
             y="30"
             id="tspan132"
             style="font-size:12px;font-variant:normal;font-weight:normal;writing-mode:lr-tb;fill:#000000;fill-opacity:1;fill-rule:nonzero;stroke:none;font-family:Serif;-inkscape-font-specification:Serif">access</tspan><tspan
             x="0 3.336 8.6639996 14.664 19.992001"
             y="45"
             id="tspan134"
             style="font-size:12px;font-variant:normal;font-weight:normal;writing-mode:lr-tb;fill:#000000;fill-opacity:1;fill-rule:nonzero;stroke:none;font-family:Serif;-inkscape-font-specification:Serif">level</tspan><tspan
             x="0 3.336 9.3360004 15.336 24 28.667999 33.995998"
             y="60"
             id="tspan136"
             style="font-size:12px;font-variant:normal;font-weight:normal;writing-mode:lr-tb;fill:#000000;fill-opacity:1;fill-rule:nonzero;stroke:none;font-family:Serif;-inkscape-font-specification:Serif">inpUsed</tspan><tspan
             x="0 3.9960001 9.3240004 13.992 19.992001 23.327999"
             y="75"
             id="tspan138"
             style="font-size:12px;font-variant:normal;font-weight:normal;writing-mode:lr-tb;fill:#000000;fill-opacity:1;fill-rule:nonzero;stroke:none;font-family:Serif;-inkscape-font-specification:Serif">result</tspan><tspan
             x="0 5.3280001 10.656 13.992"
             y="90"
             id="tspan140"
             style="font-size:12px;font-variant:normal;font-weight:normal;writing-mode:lr-tb;fill:#000000;fill-opacity:1;fill-rule:nonzero;stroke:none;font-family:Serif;-inkscape-font-specification:Serif">calc</tspan><tspan
             x="0 3.9960001 9.9960003 15.324"
             y="105"
             id="tspan142"
             style="font-size:12px;font-variant:normal;font-weight:normal;writing-mode:lr-tb;fill:#000000;fill-opacity:1;fill-rule:nonzero;stroke:none;font-family:Serif;-inkscape-font-specification:Serif">rpcl</tspan><tspan
             x="0 6 11.328 17.327999 20.664 24 28.667999"
             y="120"
             id="tspan144"
             style="font-size:12px;font-variant:normal;font-weight:normal;writing-mode:lr-tb;fill:#000000;fill-opacity:1;fill-rule:nonzero;stroke:none;font-family:Serif;-inkscape-font-specification:Serif">uaglist</tspan><tspan
             x="0 6 11.328 17.327999 24.66 27.996 32.664001"
             y="135"
             id="tspan146"
             style="font-size:12px;font-variant:normal;font-weight:normal;writing-mode:lr-tb;fill:#000000;fill-opacity:1;fill-rule:nonzero;stroke:none;font-family:Serif;-inkscape-font-specification:Serif">hagList</tspan></text>
</g><path
         d="m 2073,1168.22 630,0 0,1464.29 -630,0 0,-1464.29 z"
         inkscape:connector-curvature="0"
         id="path148"
         style="fill:none;stroke:#000000;stroke-width:6;stroke-linecap:square;stroke-linejoin:miter;stroke-miterlimit:10;stroke-opacity:1;stroke-dasharray:none" /><g
         transform="scale(10,10)"
         id="g150"><text
           transform="matrix(1,0,0,-1,342.3,192.251)"
           id="text152"><tspan
             x="0 8.6639996 15.336 24 32.664001 41.327999"
             y="0"
             id="tspan154"
             style="font-size:12px;font-variant:normal;font-weight:normal;writing-mode:lr-tb;fill:#000000;fill-opacity:1;fill-rule:nonzero;stroke:none;font-family:Serif;-inkscape-font-specification:Serif">ASGHAG</tspan><tspan
             x="0 6 12 18"
             y="15"
             id="tspan156"
             style="font-size:12px;font-variant:normal;font-weight:normal;writing-mode:lr-tb;fill:#000000;fill-opacity:1;fill-rule:nonzero;stroke:none;font-family:Serif;-inkscape-font-specification:Serif">node</tspan><tspan
             x="0 6 12 17.327999"
             y="30"
             id="tspan158"
             style="font-size:12px;font-variant:normal;font-weight:normal;writing-mode:lr-tb;fill:#000000;fill-opacity:1;fill-rule:nonzero;stroke:none;font-family:Serif;-inkscape-font-specification:Serif">phag</tspan></text>
</g><path
         d="m 3423,1552.51 540,0 0,450 -540,0 0,-450 z"
         inkscape:connector-curvature="0"
         id="path160"
         style="fill:none;stroke:#000000;stroke-width:6;stroke-linecap:square;stroke-linejoin:miter;stroke-miterlimit:10;stroke-opacity:1;stroke-dasharray:none" /><g
         transform="scale(10,10)"
         id="g162"><text
           transform="matrix(1,0,0,-1,342.3,255.251)"
           id="text164"><tspan
             x="0 8.6639996 15.336 24 32.664001 41.327999"
             y="0"
             id="tspan166"
             style="font-size:12px;font-variant:normal;font-weight:normal;writing-mode:lr-tb;fill:#000000;fill-opacity:1;fill-rule:nonzero;stroke:none;font-family:Serif;-inkscape-font-specification:Serif">ASGUAG</tspan><tspan
             x="0 6 12 18"
             y="15"
             id="tspan168"
             style="font-size:12px;font-variant:normal;font-weight:normal;writing-mode:lr-tb;fill:#000000;fill-opacity:1;fill-rule:nonzero;stroke:none;font-family:Serif;-inkscape-font-specification:Serif">node</tspan><tspan
             x="0 6 12 17.327999"
             y="30"
             id="tspan170"
             style="font-size:12px;font-variant:normal;font-weight:normal;writing-mode:lr-tb;fill:#000000;fill-opacity:1;fill-rule:nonzero;stroke:none;font-family:Serif;-inkscape-font-specification:Serif">puag</tspan></text>
</g><path
         d="m 3423,2182.51 540,0 0,450 -540,0 0,-450 z"
         inkscape:connector-curvature="0"
         id="path172"
         style="fill:none;stroke:#000000;stroke-width:6;stroke-linecap:square;stroke-linejoin:miter;stroke-miterlimit:10;stroke-opacity:1;stroke-dasharray:none" /><g
         transform="scale(10,10)"
         id="g174"><text
           transform="matrix(1,0,0,-1,342.3,120.251)"
           id="text176"><tspan
             x="0 8.6639996 15.336 24 32.004002 39.335999 43.332001 50.664001 59.327999"
             y="0"
             id="tspan178"
             style="font-size:12px;font-variant:normal;font-weight:normal;writing-mode:lr-tb;fill:#000000;fill-opacity:1;fill-rule:nonzero;stroke:none;font-family:Serif;-inkscape-font-specification:Serif">ASGCLIENT</tspan><tspan
             x="0 6 12 18"
             y="15"
             id="tspan180"
             style="font-size:12px;font-variant:normal;font-weight:normal;writing-mode:lr-tb;fill:#000000;fill-opacity:1;fill-rule:nonzero;stroke:none;font-family:Serif;-inkscape-font-specification:Serif">node</tspan><tspan
             x="0 6 11.328 15.996 21.996 32.664001 37.992001 47.327999 53.327999 58.655998"
             y="30"
             id="tspan182"
             style="font-size:12px;font-variant:normal;font-weight:normal;writing-mode:lr-tb;fill:#000000;fill-opacity:1;fill-rule:nonzero;stroke:none;font-family:Serif;-inkscape-font-specification:Serif">pasgMember</tspan><tspan
             x="0 6 10.668 15.996"
             y="45"
             id="tspan184"
             style="font-size:12px;font-variant:normal;font-weight:normal;writing-mode:lr-tb;fill:#000000;fill-opacity:1;fill-rule:nonzero;stroke:none;font-family:Serif;-inkscape-font-specification:Serif">user</tspan><tspan
             x="0 6 12 16.667999"
             y="60"
             id="tspan186"
             style="font-size:12px;font-variant:normal;font-weight:normal;writing-mode:lr-tb;fill:#000000;fill-opacity:1;fill-rule:nonzero;stroke:none;font-family:Serif;-inkscape-font-specification:Serif">host</tspan><tspan
             x="0 6 10.668 15.996 19.992001 26.664 32.664001"
             y="75"
             id="tspan188"
             style="font-size:12px;font-variant:normal;font-weight:normal;writing-mode:lr-tb;fill:#000000;fill-opacity:1;fill-rule:nonzero;stroke:none;font-family:Serif;-inkscape-font-specification:Serif">userPvt</tspan><tspan
             x="0 6 11.328 16.656 19.992001 23.327999 29.327999 34.655998 39.984001"
             y="90"
             id="tspan190"
             style="font-size:12px;font-variant:normal;font-weight:normal;writing-mode:lr-tb;fill:#000000;fill-opacity:1;fill-rule:nonzero;stroke:none;font-family:Serif;-inkscape-font-specification:Serif">pcallback</tspan><tspan
             x="0 3.336 8.6639996 14.664 19.992001"
             y="105"
             id="tspan192"
             style="font-size:12px;font-variant:normal;font-weight:normal;writing-mode:lr-tb;fill:#000000;fill-opacity:1;fill-rule:nonzero;stroke:none;font-family:Serif;-inkscape-font-specification:Serif">level</tspan><tspan
             x="0 5.3280001 10.656 15.984 21.312 25.98"
             y="120"
             id="tspan194"
             style="font-size:12px;font-variant:normal;font-weight:normal;writing-mode:lr-tb;fill:#000000;fill-opacity:1;fill-rule:nonzero;stroke:none;font-family:Serif;-inkscape-font-specification:Serif">access</tspan></text>
</g><path
         d="m 3423,22.5078 720,0 0,1260 -720,0 0,-1260 z"
         inkscape:connector-curvature="0"
         id="path196"
         style="fill:none;stroke:#000000;stroke-width:6;stroke-linecap:square;stroke-linejoin:miter;stroke-miterlimit:10;stroke-opacity:1;stroke-dasharray:none" /><g
         transform="scale(10,10)"
         id="g198"><text
           transform="matrix(1,0,0,-1,199.3,96.3937)"
           id="text200"><tspan
             x="0 8.6639996 15.336 24 34.667999 42 52.667999 60.672001 68.003998"
             y="0"
             id="tspan202"
             style="font-size:12px;font-variant:normal;font-weight:normal;writing-mode:lr-tb;fill:#000000;fill-opacity:1;fill-rule:nonzero;stroke:none;font-family:Serif;-inkscape-font-specification:Serif">ASGMEMBER</tspan><tspan
             x="0 6 12 18"
             y="15"
             id="tspan204"
             style="font-size:12px;font-variant:normal;font-weight:normal;writing-mode:lr-tb;fill:#000000;fill-opacity:1;fill-rule:nonzero;stroke:none;font-family:Serif;-inkscape-font-specification:Serif">node</tspan><tspan
             x="0 6 11.328 15.996"
             y="30"
             id="tspan206"
             style="font-size:12px;font-variant:normal;font-weight:normal;writing-mode:lr-tb;fill:#000000;fill-opacity:1;fill-rule:nonzero;stroke:none;font-family:Serif;-inkscape-font-specification:Serif">pasg</tspan><tspan
             x="0 5.3280001 8.6639996 12 17.327999 23.327999 26.664 33.995998 37.332001 42"
             y="45"
             id="tspan208"
             style="font-size:12px;font-variant:normal;font-weight:normal;writing-mode:lr-tb;fill:#000000;fill-opacity:1;fill-rule:nonzero;stroke:none;font-family:Serif;-inkscape-font-specification:Serif">clientList</tspan><tspan
             x="0 5.3280001 9.9960003 15.996 24.66 29.988001 39.324001"
             y="60"
             id="tspan210"
             style="font-size:12px;font-variant:normal;font-weight:normal;writing-mode:lr-tb;fill:#000000;fill-opacity:1;fill-rule:nonzero;stroke:none;font-family:Serif;-inkscape-font-specification:Serif">asgName</tspan><tspan
             x="0 6 10.668 15.996 19.992001 26.664 32.664001"
             y="75"
             id="tspan212"
             style="font-size:12px;font-variant:normal;font-weight:normal;writing-mode:lr-tb;fill:#000000;fill-opacity:1;fill-rule:nonzero;stroke:none;font-family:Serif;-inkscape-font-specification:Serif">userPvt</tspan></text>
</g><path
         d="m 1993,153.938 810,0 0,890 -810,0 0,-890 z"
         inkscape:connector-curvature="0"
         id="path214"
         style="fill:none;stroke:#000000;stroke-width:6;stroke-linecap:square;stroke-linejoin:miter;stroke-miterlimit:10;stroke-opacity:1;stroke-dasharray:none" /><path
         d="m 792.602,4766.11 92.296,26.4 -92.296,26.4 0,-52.8 z"
         inkscape:connector-curvature="0"
         id="path216"
         style="fill:none;stroke:#000000;stroke-width:10.80000019;stroke-linecap:butt;stroke-linejoin:miter;stroke-miterlimit:10;stroke-opacity:1;stroke-dasharray:none" /><path
         d="m 792.602,4766.11 92.296,26.4 -92.296,26.4 0,-26.4"
         inkscape:connector-curvature="0"
         id="path218"
         style="fill:#000000;fill-opacity:1;fill-rule:evenodd;stroke:none" /><path
         d="m 787.602,4792.51 -154.602,0 0,-1080 -90,0"
         inkscape:connector-curvature="0"
         id="path220"
         style="fill:none;stroke:#000000;stroke-width:6;stroke-linecap:square;stroke-linejoin:miter;stroke-miterlimit:10;stroke-opacity:1;stroke-dasharray:none" /><path
         d="m 792.602,4136.11 92.296,26.4 -92.296,26.4 0,-52.8 z"
         inkscape:connector-curvature="0"
         id="path222"
         style="fill:none;stroke:#000000;stroke-width:10.80000019;stroke-linecap:butt;stroke-linejoin:miter;stroke-miterlimit:10;stroke-opacity:1;stroke-dasharray:none" /><path
         d="m 792.602,4136.11 92.296,26.4 -92.296,26.4 0,-26.4"
         inkscape:connector-curvature="0"
         id="path224"
         style="fill:#000000;fill-opacity:1;fill-rule:evenodd;stroke:none" /><path
         d="m 787.602,4162.51 -64.602,0 0,-630 -180,0"
         inkscape:connector-curvature="0"
         id="path226"
         style="fill:none;stroke:#000000;stroke-width:6;stroke-linecap:square;stroke-linejoin:miter;stroke-miterlimit:10;stroke-opacity:1;stroke-dasharray:none" /><path
         d="m 702.602,3416.11 92.296,26.4 -92.296,26.4 0,-52.8 z"
         inkscape:connector-curvature="0"
         id="path228"
         style="fill:none;stroke:#000000;stroke-width:10.80000019;stroke-linecap:butt;stroke-linejoin:miter;stroke-miterlimit:10;stroke-opacity:1;stroke-dasharray:none" /><path
         d="m 702.602,3416.11 92.296,26.4 -92.296,26.4 0,-26.4"
         inkscape:connector-curvature="0"
         id="path230"
         style="fill:#000000;fill-opacity:1;fill-rule:evenodd;stroke:none" /><path
         d="m 697.602,3442.51 -154.602,0"
         inkscape:connector-curvature="0"
         id="path232"
         style="fill:none;stroke:#000000;stroke-width:6;stroke-linecap:square;stroke-linejoin:miter;stroke-miterlimit:10;stroke-opacity:1;stroke-dasharray:none" /><path
         d="m 1962.6,3596.11 92.3,26.4 -92.3,26.4 0,-52.8 z"
         inkscape:connector-curvature="0"
         id="path234"
         style="fill:none;stroke:#000000;stroke-width:10.80000019;stroke-linecap:butt;stroke-linejoin:miter;stroke-miterlimit:10;stroke-opacity:1;stroke-dasharray:none" /><path
         d="m 1962.6,3596.11 92.3,26.4 -92.3,26.4 0,-26.4"
         inkscape:connector-curvature="0"
         id="path236"
         style="fill:#000000;fill-opacity:1;fill-rule:evenodd;stroke:none" /><path
         d="m 1957.6,3622.51 -244.6,0 0,-630 -180,0"
         inkscape:connector-curvature="0"
         id="path238"
         style="fill:none;stroke:#000000;stroke-width:6;stroke-linecap:square;stroke-linejoin:miter;stroke-miterlimit:10;stroke-opacity:1;stroke-dasharray:none" /><path
         d="m 1962.6,2606.11 92.3,26.4 -92.3,26.4 0,-52.8 z"
         inkscape:connector-curvature="0"
         id="path240"
         style="fill:none;stroke:#000000;stroke-width:10.80000019;stroke-linecap:butt;stroke-linejoin:miter;stroke-miterlimit:10;stroke-opacity:1;stroke-dasharray:none" /><path
         d="m 1962.6,2606.11 92.3,26.4 -92.3,26.4 0,-26.4"
         inkscape:connector-curvature="0"
         id="path242"
         style="fill:#000000;fill-opacity:1;fill-rule:evenodd;stroke:none" /><path
         d="m 1957.6,2632.51 -244.6,0 0,180 -180,0"
         inkscape:connector-curvature="0"
         id="path244"
         style="fill:none;stroke:#000000;stroke-width:6;stroke-linecap:square;stroke-linejoin:miter;stroke-miterlimit:10;stroke-opacity:1;stroke-dasharray:none" /><path
         d="m 1906.09,548.965 80.24,36.847 -80.24,36.848 0,-36.848"
         inkscape:connector-curvature="0"
         id="path246"
         style="fill:#000000;fill-opacity:1;fill-rule:evenodd;stroke:none" /><g
         transform="scale(0.767609,-1.23239)"
         id="g248"><path
           d="m 2477.48,-475.346 -378.95,0 0,-1732.814 -101.93,0"
           inkscape:connector-curvature="0"
           id="path250"
           style="fill:none;stroke:#000000;stroke-width:6.16889;stroke-linecap:square;stroke-linejoin:miter;stroke-miterlimit:10;stroke-opacity:1;stroke-dasharray:none" /></g><path
         d="m 3312.6,1256.11 92.3,26.4 -92.3,26.4 0,-52.8 z"
         inkscape:connector-curvature="0"
         id="path252"
         style="fill:none;stroke:#000000;stroke-width:10.80000019;stroke-linecap:butt;stroke-linejoin:miter;stroke-miterlimit:10;stroke-opacity:1;stroke-dasharray:none" /><path
         d="m 3312.6,1256.11 92.3,26.4 -92.3,26.4 0,-26.4"
         inkscape:connector-curvature="0"
         id="path254"
         style="fill:#000000;fill-opacity:1;fill-rule:evenodd;stroke:none" /><path
         d="m 3307.6,1282.51 -183.73,0 0,-574.287 -320.87,0"
         inkscape:connector-curvature="0"
         id="path256"
         style="fill:none;stroke:#000000;stroke-width:6;stroke-linecap:square;stroke-linejoin:miter;stroke-miterlimit:10;stroke-opacity:1;stroke-dasharray:none" /><path
         d="m 3312.6,2606.11 92.3,26.4 -92.3,26.4 0,-52.8 z"
         inkscape:connector-curvature="0"
         id="path258"
         style="fill:none;stroke:#000000;stroke-width:10.80000019;stroke-linecap:butt;stroke-linejoin:miter;stroke-miterlimit:10;stroke-opacity:1;stroke-dasharray:none" /><path
         d="m 3312.6,2606.11 92.3,26.4 -92.3,26.4 0,-26.4"
         inkscape:connector-curvature="0"
         id="path260"
         style="fill:#000000;fill-opacity:1;fill-rule:evenodd;stroke:none" /><path
         d="m 3307.6,2632.51 -424.6,0 0,-1170 -180,0"
         inkscape:connector-curvature="0"
         id="path262"
         style="fill:none;stroke:#000000;stroke-width:6;stroke-linecap:square;stroke-linejoin:miter;stroke-miterlimit:10;stroke-opacity:1;stroke-dasharray:none" /><path
         d="m 3312.6,1976.11 92.3,26.4 -92.3,26.4 0,-52.8 z"
         inkscape:connector-curvature="0"
         id="path264"
         style="fill:none;stroke:#000000;stroke-width:10.80000019;stroke-linecap:butt;stroke-linejoin:miter;stroke-miterlimit:10;stroke-opacity:1;stroke-dasharray:none" /><path
         d="m 3312.6,1976.11 92.3,26.4 -92.3,26.4 0,-26.4"
         inkscape:connector-curvature="0"
         id="path266"
         style="fill:#000000;fill-opacity:1;fill-rule:evenodd;stroke:none" /><path
         d="m 3307.6,2002.51 -244.6,0 0,-630 -360,0"
         inkscape:connector-curvature="0"
         id="path268"
         style="fill:none;stroke:#000000;stroke-width:6;stroke-linecap:square;stroke-linejoin:miter;stroke-miterlimit:10;stroke-opacity:1;stroke-dasharray:none" /><path
         d="m 1512.6,4766.11 92.3,26.4 -92.3,26.4 0,-52.8 z"
         inkscape:connector-curvature="0"
         id="path270"
         style="fill:none;stroke:#000000;stroke-width:10.80000019;stroke-linecap:butt;stroke-linejoin:miter;stroke-miterlimit:10;stroke-opacity:1;stroke-dasharray:none" /><path
         d="m 1512.6,4766.11 92.3,26.4 -92.3,26.4 0,-26.4"
         inkscape:connector-curvature="0"
         id="path272"
         style="fill:#000000;fill-opacity:1;fill-rule:evenodd;stroke:none" /><path
         d="m 1507.6,4792.51 -64.6,0 0,-360 -90,0"
         inkscape:connector-curvature="0"
         id="path274"
         style="fill:none;stroke:#000000;stroke-width:6;stroke-linecap:square;stroke-linejoin:miter;stroke-miterlimit:10;stroke-opacity:1;stroke-dasharray:none" /><path
         d="m 1512.6,4046.11 92.3,26.4 -92.3,26.4 0,-52.8 z"
         inkscape:connector-curvature="0"
         id="path276"
         style="fill:none;stroke:#000000;stroke-width:10.80000019;stroke-linecap:butt;stroke-linejoin:miter;stroke-miterlimit:10;stroke-opacity:1;stroke-dasharray:none" /><path
         d="m 1512.6,4046.11 92.3,26.4 -92.3,26.4 0,-26.4"
         inkscape:connector-curvature="0"
         id="path278"
         style="fill:#000000;fill-opacity:1;fill-rule:evenodd;stroke:none" /><path
         d="m 1507.6,4072.51 -64.6,0 0,-360 -90,0"
         inkscape:connector-curvature="0"
         id="path280"
         style="fill:none;stroke:#000000;stroke-width:6;stroke-linecap:square;stroke-linejoin:miter;stroke-miterlimit:10;stroke-opacity:1;stroke-dasharray:none" /></g></g></svg>