<?xml version="1.0" encoding="UTF-8" standalone="no"?>
<!-- Created with Inkscape (http://www.inkscape.org/) -->

<svg
   xmlns:dc="http://purl.org/dc/elements/1.1/"
   xmlns:cc="http://creativecommons.org/ns#"
   xmlns:rdf="http://www.w3.org/1999/02/22-rdf-syntax-ns#"
   xmlns:svg="http://www.w3.org/2000/svg"
   xmlns="http://www.w3.org/2000/svg"
   xmlns:inkscape="http://www.inkscape.org/namespaces/inkscape"
   version="1.1"
   width="585.75"
   height="698.79999"
   id="svg2"
   xml:space="preserve"><metadata
     id="metadata8"><rdf:RDF><cc:Work
         rdf:about=""><dc:format>image/svg+xml</dc:format><dc:type
           rdf:resource="http://purl.org/dc/dcmitype/StillImage" /></cc:Work></rdf:RDF></metadata><defs
     id="defs6" /><g
     transform="matrix(1.25,0,0,-1.25,0,698.8)"
     id="g10"><g
       transform="scale(0.1,0.1)"
       id="g12"><g
         transform="scale(10,10)"
         id="g14"><text
           transform="matrix(1,0,0,-1,0.3,343.41)"
           id="text16"><tspan
             x="0 6 12 20.004 25.332001 30"
             y="0"
             id="tspan18"
             style="font-size:12px;font-variant:normal;font-weight:normal;writing-mode:lr-tb;fill:#000000;fill-opacity:1;fill-rule:nonzero;stroke:none;font-family:Serif;-inkscape-font-specification:Serif">dbBase</tspan><tspan
             x="0 9.3360004 14.664 20.664 26.664 33.995998 37.332001 42"
             y="15"
             id="tspan20"
             style="font-size:12px;font-variant:normal;font-weight:normal;writing-mode:lr-tb;fill:#000000;fill-opacity:1;fill-rule:nonzero;stroke:none;font-family:Serif;-inkscape-font-specification:Serif">menuList</tspan><tspan
             x="0 3.9960001 9.3240004 14.652 20.652 24.648001 30.648001 37.98 43.98 49.98 55.307999 62.639999 65.975998 70.643997"
             y="30"
             id="tspan22"
             style="font-size:12px;font-variant:normal;font-weight:normal;writing-mode:lr-tb;fill:#000000;fill-opacity:1;fill-rule:nonzero;stroke:none;font-family:Serif;-inkscape-font-specification:Serif">recordTypeList</tspan><tspan
             x="0 6 9.9960003 15.996 23.327999 26.664 31.332001"
             y="45"
             id="tspan24"
             style="font-size:12px;font-variant:normal;font-weight:normal;writing-mode:lr-tb;fill:#000000;fill-opacity:1;fill-rule:nonzero;stroke:none;font-family:Serif;-inkscape-font-specification:Serif">drvList</tspan><tspan
             x="0 6 12 15.336 22.667999 26.004 30.672001"
             y="60"
             id="tspan26"
             style="font-size:12px;font-variant:normal;font-weight:normal;writing-mode:lr-tb;fill:#000000;fill-opacity:1;fill-rule:nonzero;stroke:none;font-family:Serif;-inkscape-font-specification:Serif">bptList</tspan><tspan
             x="0 6 11.328 14.664 20.664 27.336 33.335999"
             y="75"
             id="tspan28"
             style="font-size:12px;font-variant:normal;font-weight:normal;writing-mode:lr-tb;fill:#000000;fill-opacity:1;fill-rule:nonzero;stroke:none;font-family:Serif;-inkscape-font-specification:Serif">pathPvt</tspan><tspan
             x="0 6 12 18"
             y="90"
             id="tspan30"
             style="font-size:12px;font-variant:normal;font-weight:normal;writing-mode:lr-tb;fill:#000000;fill-opacity:1;fill-rule:nonzero;stroke:none;font-family:Serif;-inkscape-font-specification:Serif">ppvd</tspan><tspan
             x="0 6 12 18 26.664 31.992001 36.66"
             y="105"
             id="tspan32"
             style="font-size:12px;font-variant:normal;font-weight:normal;writing-mode:lr-tb;fill:#000000;fill-opacity:1;fill-rule:nonzero;stroke:none;font-family:Serif;-inkscape-font-specification:Serif">pgpHash</tspan><tspan
             x="0 3.336 9.3360004 15.336 21.336 25.332001 30.66 41.327999 44.664001 49.332001 54 57.335999 63.335999 69.335999 80.003998 85.332001 91.332001 97.332001"
             y="120"
             id="tspan34"
             style="font-size:12px;font-variant:normal;font-weight:normal;writing-mode:lr-tb;fill:#000000;fill-opacity:1;fill-rule:nonzero;stroke:none;font-family:Serif;-inkscape-font-specification:Serif">ignoreMissingMenus</tspan></text>
</g><path
         d="m 3,2164.1 1170,0 0,1350 -1170,0 0,-1350 z"
         inkscape:connector-curvature="0"
         id="path36"
         style="fill:none;stroke:#000000;stroke-width:6;stroke-linecap:square;stroke-linejoin:miter;stroke-miterlimit:10;stroke-opacity:1;stroke-dasharray:none" /><g
         transform="scale(10,10)"
         id="g38"><text
           transform="matrix(1,0,0,-1,153.3,541.41)"
           id="text40"><tspan
             x="0 6 12 22.667999 27.996 33.995998"
             y="0"
             id="tspan42"
             style="font-size:12px;font-variant:normal;font-weight:normal;writing-mode:lr-tb;fill:#000000;fill-opacity:1;fill-rule:nonzero;stroke:none;font-family:Serif;-inkscape-font-specification:Serif">dbMenu</tspan><tspan
             x="0 6 12 18"
             y="15"
             id="tspan44"
             style="font-size:12px;font-variant:normal;font-weight:normal;writing-mode:lr-tb;fill:#000000;fill-opacity:1;fill-rule:nonzero;stroke:none;font-family:Serif;-inkscape-font-specification:Serif">node</tspan><tspan
             x="0 6 11.328 20.664"
             y="30"
             id="tspan46"
             style="font-size:12px;font-variant:normal;font-weight:normal;writing-mode:lr-tb;fill:#000000;fill-opacity:1;fill-rule:nonzero;stroke:none;font-family:Serif;-inkscape-font-specification:Serif">name</tspan><tspan
             x="0 6 14.004 20.004 26.004 29.34 34.667999"
             y="45"
             id="tspan48"
             style="font-size:12px;font-variant:normal;font-weight:normal;writing-mode:lr-tb;fill:#000000;fill-opacity:1;fill-rule:nonzero;stroke:none;font-family:Serif;-inkscape-font-specification:Serif">nChoice</tspan><tspan
             x="0 6 11.328 17.327999 25.332001 31.332001 37.332001 40.667999 45.995998 51.324001 59.987999 65.316002 74.652"
             y="60"
             id="tspan50"
             style="font-size:12px;font-variant:normal;font-weight:normal;writing-mode:lr-tb;fill:#000000;fill-opacity:1;fill-rule:nonzero;stroke:none;font-family:Serif;-inkscape-font-specification:Serif">papChoiceName</tspan><tspan
             x="0 6 11.328 17.327999 25.332001 31.332001 37.332001 40.667999 45.995998 51.324001 59.987999 65.316002 68.652 74.652"
             y="75"
             id="tspan52"
             style="font-size:12px;font-variant:normal;font-weight:normal;writing-mode:lr-tb;fill:#000000;fill-opacity:1;fill-rule:nonzero;stroke:none;font-family:Serif;-inkscape-font-specification:Serif">papChoiceValue</tspan></text>
</g><path
         d="m 1533,4504.1 1080,0 0,990 -1080,0 0,-990 z"
         inkscape:connector-curvature="0"
         id="path54"
         style="fill:none;stroke:#000000;stroke-width:6;stroke-linecap:square;stroke-linejoin:miter;stroke-miterlimit:10;stroke-opacity:1;stroke-dasharray:none" /><g
         transform="scale(10,10)"
         id="g56"><text
           transform="matrix(1,0,0,-1,153.3,397.41)"
           id="text58"><tspan
             x="0 6 12 20.004 25.332001 30.66 36.66 40.655998 46.655998 53.987999 59.987999 65.987999"
             y="0"
             id="tspan60"
             style="font-size:12px;font-variant:normal;font-weight:normal;writing-mode:lr-tb;fill:#000000;fill-opacity:1;fill-rule:nonzero;stroke:none;font-family:Serif;-inkscape-font-specification:Serif">dbRecordType</tspan><tspan
             x="0 6 12 18"
             y="15"
             id="tspan62"
             style="font-size:12px;font-variant:normal;font-weight:normal;writing-mode:lr-tb;fill:#000000;fill-opacity:1;fill-rule:nonzero;stroke:none;font-family:Serif;-inkscape-font-specification:Serif">node</tspan><tspan
             x="0 5.3280001 8.6639996 12 15.996 19.332001 25.332001 31.332001 34.667999 39.995998 47.327999 50.664001 55.332001"
             y="30"
             id="tspan64"
             style="font-size:12px;font-variant:normal;font-weight:normal;writing-mode:lr-tb;fill:#000000;fill-opacity:1;fill-rule:nonzero;stroke:none;font-family:Serif;-inkscape-font-specification:Serif">attributeList</tspan><tspan
             x="0 3.9960001 9.3240004 14.652 21.983999 25.32 29.988001"
             y="45"
             id="tspan66"
             style="font-size:12px;font-variant:normal;font-weight:normal;writing-mode:lr-tb;fill:#000000;fill-opacity:1;fill-rule:nonzero;stroke:none;font-family:Serif;-inkscape-font-specification:Serif">recList</tspan><tspan
             x="0 6 11.328 17.327999 24.66 27.996 32.664001"
             y="60"
             id="tspan68"
             style="font-size:12px;font-variant:normal;font-weight:normal;writing-mode:lr-tb;fill:#000000;fill-opacity:1;fill-rule:nonzero;stroke:none;font-family:Serif;-inkscape-font-specification:Serif">devList</tspan><tspan
             x="0 6 11.328 20.664"
             y="75"
             id="tspan70"
             style="font-size:12px;font-variant:normal;font-weight:normal;writing-mode:lr-tb;fill:#000000;fill-opacity:1;fill-rule:nonzero;stroke:none;font-family:Serif;-inkscape-font-specification:Serif">name</tspan><tspan
             x="0 6 12 18 21.996 25.332001 30.66 33.995998 39.995998"
             y="90"
             id="tspan72"
             style="font-size:12px;font-variant:normal;font-weight:normal;writing-mode:lr-tb;fill:#000000;fill-opacity:1;fill-rule:nonzero;stroke:none;font-family:Serif;-inkscape-font-specification:Serif">no_fields</tspan><tspan
             x="0 6 12 18 24 27.996 33.995998 43.332001 49.332001"
             y="105"
             id="tspan74"
             style="font-size:12px;font-variant:normal;font-weight:normal;writing-mode:lr-tb;fill:#000000;fill-opacity:1;fill-rule:nonzero;stroke:none;font-family:Serif;-inkscape-font-specification:Serif">no_prompt</tspan><tspan
             x="0 3.336 6.6719999 12.672 18.672001 24.672001 28.007999 34.007999"
             y="120"
             id="tspan76"
             style="font-size:12px;font-variant:normal;font-weight:normal;writing-mode:lr-tb;fill:#000000;fill-opacity:1;fill-rule:nonzero;stroke:none;font-family:Serif;-inkscape-font-specification:Serif">link_ind</tspan><tspan
             x="0 6 11.328 17.327999 21.996 27.996 31.992001 35.327999 42 45.335999 51.335999 60 65.328003 74.664001"
             y="135"
             id="tspan78"
             style="font-size:12px;font-variant:normal;font-weight:normal;writing-mode:lr-tb;fill:#000000;fill-opacity:1;fill-rule:nonzero;stroke:none;font-family:Serif;-inkscape-font-specification:Serif">papsortFldName</tspan><tspan
             x="0 4.6680002 10.668 14.664 18 24.672001 28.007999 34.007999 38.004002 44.004002"
             y="150"
             id="tspan80"
             style="font-size:12px;font-variant:normal;font-weight:normal;writing-mode:lr-tb;fill:#000000;fill-opacity:1;fill-rule:nonzero;stroke:none;font-family:Serif;-inkscape-font-specification:Serif">sortFldInd</tspan><tspan
             x="0 6 12 17.327999 20.664 27.336 30.672001 36.672001 45.335999 50.664001"
             y="165"
             id="tspan82"
             style="font-size:12px;font-variant:normal;font-weight:normal;writing-mode:lr-tb;fill:#000000;fill-opacity:1;fill-rule:nonzero;stroke:none;font-family:Serif;-inkscape-font-specification:Serif">pvalFldDes</tspan><tspan
             x="0 3.336 9.3360004 15.336 21.336 26.664 30 36.672001 40.007999 46.007999 52.007999 57.335999"
             y="180"
             id="tspan84"
             style="font-size:12px;font-variant:normal;font-weight:normal;writing-mode:lr-tb;fill:#000000;fill-opacity:1;fill-rule:nonzero;stroke:none;font-family:Serif;-inkscape-font-specification:Serif">indvalFlddes</tspan><tspan
             x="0 6 11.328 17.327999 24 27.336 33.335999 42 47.327999"
             y="195"
             id="tspan86"
             style="font-size:12px;font-variant:normal;font-weight:normal;writing-mode:lr-tb;fill:#000000;fill-opacity:1;fill-rule:nonzero;stroke:none;font-family:Serif;-inkscape-font-specification:Serif">papFldDes</tspan><tspan
             x="0 6 9.9960003 14.664 19.992001"
             y="210"
             id="tspan88"
             style="font-size:12px;font-variant:normal;font-weight:normal;writing-mode:lr-tb;fill:#000000;fill-opacity:1;fill-rule:nonzero;stroke:none;font-family:Serif;-inkscape-font-specification:Serif">prset</tspan><tspan
             x="0 3.9960001 9.3240004 14.652 20.652 25.32 28.656 33.984001"
             y="225"
             id="tspan90"
             style="font-size:12px;font-variant:normal;font-weight:normal;writing-mode:lr-tb;fill:#000000;fill-opacity:1;fill-rule:nonzero;stroke:none;font-family:Serif;-inkscape-font-specification:Serif">rec_size</tspan></text>
</g><path
         d="m 1533,1678.39 1080,0 0,2375.71 -1080,0 0,-2375.71 z"
         inkscape:connector-curvature="0"
         id="path92"
         style="fill:none;stroke:#000000;stroke-width:6;stroke-linecap:square;stroke-linejoin:miter;stroke-miterlimit:10;stroke-opacity:1;stroke-dasharray:none" /><g
         transform="scale(10,10)"
         id="g94"><text
           transform="matrix(1,0,0,-1,162.3,154.41)"
           id="text96"><tspan
             x="0 6 9.9960003 15.996 22.667999 28.667999"
             y="0"
             id="tspan98"
             style="font-size:12px;font-variant:normal;font-weight:normal;writing-mode:lr-tb;fill:#000000;fill-opacity:1;fill-rule:nonzero;stroke:none;font-family:Serif;-inkscape-font-specification:Serif">drvSup</tspan><tspan
             x="0 6 12 18"
             y="15"
             id="tspan100"
             style="font-size:12px;font-variant:normal;font-weight:normal;writing-mode:lr-tb;fill:#000000;fill-opacity:1;fill-rule:nonzero;stroke:none;font-family:Serif;-inkscape-font-specification:Serif">node</tspan><tspan
             x="0 6 11.328 20.664"
             y="30"
             id="tspan102"
             style="font-size:12px;font-variant:normal;font-weight:normal;writing-mode:lr-tb;fill:#000000;fill-opacity:1;fill-rule:nonzero;stroke:none;font-family:Serif;-inkscape-font-specification:Serif">name</tspan><tspan
             x="0 6 12 15.996 21.996 27.323999"
             y="45"
             id="tspan104"
             style="font-size:12px;font-variant:normal;font-weight:normal;writing-mode:lr-tb;fill:#000000;fill-opacity:1;fill-rule:nonzero;stroke:none;font-family:Serif;-inkscape-font-specification:Serif">pdrvet</tspan></text>
</g><path
         d="m 1623,904.102 720,0 0,720 -720,0 0,-720 z"
         inkscape:connector-curvature="0"
         id="path106"
         style="fill:none;stroke:#000000;stroke-width:6;stroke-linecap:square;stroke-linejoin:miter;stroke-miterlimit:10;stroke-opacity:1;stroke-dasharray:none" /><g
         transform="scale(10,10)"
         id="g108"><text
           transform="matrix(1,0,0,-1,153.3,64.4102)"
           id="text110"><tspan
             x="0 6 9.9960003 15.996 23.327999 28.656 34.655998 37.992001"
             y="0"
             id="tspan112"
             style="font-size:12px;font-variant:normal;font-weight:normal;writing-mode:lr-tb;fill:#000000;fill-opacity:1;fill-rule:nonzero;stroke:none;font-family:Serif;-inkscape-font-specification:Serif">brkTable</tspan><tspan
             x="0 6 12 18"
             y="15"
             id="tspan114"
             style="font-size:12px;font-variant:normal;font-weight:normal;writing-mode:lr-tb;fill:#000000;fill-opacity:1;fill-rule:nonzero;stroke:none;font-family:Serif;-inkscape-font-specification:Serif">node</tspan><tspan
             x="0 6 11.328 20.664"
             y="30"
             id="tspan116"
             style="font-size:12px;font-variant:normal;font-weight:normal;writing-mode:lr-tb;fill:#000000;fill-opacity:1;fill-rule:nonzero;stroke:none;font-family:Serif;-inkscape-font-specification:Serif">name</tspan><tspan
             x="0 6 12 21.336 27.336 32.664001"
             y="45"
             id="tspan118"
             style="font-size:12px;font-variant:normal;font-weight:normal;writing-mode:lr-tb;fill:#000000;fill-opacity:1;fill-rule:nonzero;stroke:none;font-family:Serif;-inkscape-font-specification:Serif">number</tspan><tspan
             x="0 6 11.328 17.327999 25.332001 29.327999 35.327999 39.324001 45.324001"
             y="60"
             id="tspan120"
             style="font-size:12px;font-variant:normal;font-weight:normal;writing-mode:lr-tb;fill:#000000;fill-opacity:1;fill-rule:nonzero;stroke:none;font-family:Serif;-inkscape-font-specification:Serif">papBrkInt</tspan></text>
</g><path
         d="m 1533,4.10156 720,0 0,720 -720,0 0,-720 z"
         inkscape:connector-curvature="0"
         id="path122"
         style="fill:none;stroke:#000000;stroke-width:6;stroke-linecap:square;stroke-linejoin:miter;stroke-miterlimit:10;stroke-opacity:1;stroke-dasharray:none" /><g
         transform="scale(10,10)"
         id="g124"><text
           transform="matrix(1,0,0,-1,297.3,64.4102)"
           id="text126"><tspan
             x="0 6 9.9960003 15.996 19.992001 25.992001"
             y="0"
             id="tspan128"
             style="font-size:12px;font-variant:normal;font-weight:normal;writing-mode:lr-tb;fill:#000000;fill-opacity:1;fill-rule:nonzero;stroke:none;font-family:Serif;-inkscape-font-specification:Serif">brkInt</tspan><tspan
             x="0 3.9960001 9.3240004"
             y="15"
             id="tspan130"
             style="font-size:12px;font-variant:normal;font-weight:normal;writing-mode:lr-tb;fill:#000000;fill-opacity:1;fill-rule:nonzero;stroke:none;font-family:Serif;-inkscape-font-specification:Serif">raw</tspan><tspan
             x="0 4.6680002 8.0039997 14.004 20.004"
             y="30"
             id="tspan132"
             style="font-size:12px;font-variant:normal;font-weight:normal;writing-mode:lr-tb;fill:#000000;fill-opacity:1;fill-rule:nonzero;stroke:none;font-family:Serif;-inkscape-font-specification:Serif">slope</tspan><tspan
             x="0 5.3280001 11.328"
             y="45"
             id="tspan134"
             style="font-size:12px;font-variant:normal;font-weight:normal;writing-mode:lr-tb;fill:#000000;fill-opacity:1;fill-rule:nonzero;stroke:none;font-family:Serif;-inkscape-font-specification:Serif">eng</tspan></text>
</g><path
         d="m 2973,94.1016 720,0 0,630 -720,0 0,-630 z"
         inkscape:connector-curvature="0"
         id="path136"
         style="fill:none;stroke:#000000;stroke-width:6;stroke-linecap:square;stroke-linejoin:miter;stroke-miterlimit:10;stroke-opacity:1;stroke-dasharray:none" /><g
         transform="scale(10,10)"
         id="g138"><text
           transform="matrix(1,0,0,-1,315.3,307.41)"
           id="text140"><tspan
             x="0 6 12 18.672001 22.007999 28.007999 36.672001 42"
             y="0"
             id="tspan142"
             style="font-size:12px;font-variant:normal;font-weight:normal;writing-mode:lr-tb;fill:#000000;fill-opacity:1;fill-rule:nonzero;stroke:none;font-family:Serif;-inkscape-font-specification:Serif">dbFldDes</tspan><tspan
             x="0 6 9.9960003 15.996 25.332001 31.332001"
             y="15"
             id="tspan144"
             style="font-size:12px;font-variant:normal;font-weight:normal;writing-mode:lr-tb;fill:#000000;fill-opacity:1;fill-rule:nonzero;stroke:none;font-family:Serif;-inkscape-font-specification:Serif">prompt</tspan><tspan
             x="0 6 11.328 20.664"
             y="30"
             id="tspan146"
             style="font-size:12px;font-variant:normal;font-weight:normal;writing-mode:lr-tb;fill:#000000;fill-opacity:1;fill-rule:nonzero;stroke:none;font-family:Serif;-inkscape-font-specification:Serif">name</tspan><tspan
             x="0 5.3280001 11.328 14.664 18.66"
             y="45"
             id="tspan148"
             style="font-size:12px;font-variant:normal;font-weight:normal;writing-mode:lr-tb;fill:#000000;fill-opacity:1;fill-rule:nonzero;stroke:none;font-family:Serif;-inkscape-font-specification:Serif">extra</tspan><tspan
             x="0 6 12 18 26.004 31.332001 36.66 42.66 46.655998 52.655998 59.987999 65.987999 71.987999"
             y="60"
             id="tspan150"
             style="font-size:12px;font-variant:normal;font-weight:normal;writing-mode:lr-tb;fill:#000000;fill-opacity:1;fill-rule:nonzero;stroke:none;font-family:Serif;-inkscape-font-specification:Serif">pdbRecordType</tspan><tspan
             x="0 3.336 9.3360004 15.336 23.34 28.667999 33.995998 39.995998 43.992001 49.992001 57.324001 63.324001 69.323997"
             y="75"
             id="tspan152"
             style="font-size:12px;font-variant:normal;font-weight:normal;writing-mode:lr-tb;fill:#000000;fill-opacity:1;fill-rule:nonzero;stroke:none;font-family:Serif;-inkscape-font-specification:Serif">indRecordType</tspan><tspan
             x="0 4.6680002 10.668 15.996 21.323999 24.66 29.988001"
             y="90"
             id="tspan154"
             style="font-size:12px;font-variant:normal;font-weight:normal;writing-mode:lr-tb;fill:#000000;fill-opacity:1;fill-rule:nonzero;stroke:none;font-family:Serif;-inkscape-font-specification:Serif">special</tspan><tspan
             x="0 3.9960001 7.3319998 12.66 15.996 21.996 27.996 31.332001 37.332001 43.332001"
             y="105"
             id="tspan156"
             style="font-size:12px;font-variant:normal;font-weight:normal;writing-mode:lr-tb;fill:#000000;fill-opacity:1;fill-rule:nonzero;stroke:none;font-family:Serif;-inkscape-font-specification:Serif">field_type</tspan><tspan
             x="0 6 9.9960003 15.996 21.323999 26.652 31.32 35.987999 41.987999 47.987999 53.316002 57.984001 62.652 65.987999 71.987999"
             y="120"
             id="tspan158"
             style="font-size:12px;font-variant:normal;font-weight:normal;writing-mode:lr-tb;fill:#000000;fill-opacity:1;fill-rule:nonzero;stroke:none;font-family:Serif;-inkscape-font-specification:Serif">process_passive</tspan><tspan
             x="0 6 11.328 15.996"
             y="135"
             id="tspan160"
             style="font-size:12px;font-variant:normal;font-weight:normal;writing-mode:lr-tb;fill:#000000;fill-opacity:1;fill-rule:nonzero;stroke:none;font-family:Serif;-inkscape-font-specification:Serif">base</tspan><tspan
             x="0 6 9.9960003 15.996 25.332001 31.332001 34.667999 40.667999 44.664001 50.664001 56.664001"
             y="150"
             id="tspan162"
             style="font-size:12px;font-variant:normal;font-weight:normal;writing-mode:lr-tb;fill:#000000;fill-opacity:1;fill-rule:nonzero;stroke:none;font-family:Serif;-inkscape-font-specification:Serif">promptgroup</tspan><tspan
             x="0 3.336 9.3360004 12.672 18 21.996 27.323999 31.992001"
             y="165"
             id="tspan164"
             style="font-size:12px;font-variant:normal;font-weight:normal;writing-mode:lr-tb;fill:#000000;fill-opacity:1;fill-rule:nonzero;stroke:none;font-family:Serif;-inkscape-font-specification:Serif">interest</tspan><tspan
             x="0 5.3280001 9.9960003 15.996 19.332001 24.66 30.66 35.987999"
             y="180"
             id="tspan166"
             style="font-size:12px;font-variant:normal;font-weight:normal;writing-mode:lr-tb;fill:#000000;fill-opacity:1;fill-rule:nonzero;stroke:none;font-family:Serif;-inkscape-font-specification:Serif">as_level</tspan><tspan
             x="0 3.336 9.3360004 12.672 16.007999 19.344 24.672001"
             y="195"
             id="tspan168"
             style="font-size:12px;font-variant:normal;font-weight:normal;writing-mode:lr-tb;fill:#000000;fill-opacity:1;fill-rule:nonzero;stroke:none;font-family:Serif;-inkscape-font-specification:Serif">initial</tspan><tspan
             x="0 3 6"
             y="210"
             id="tspan170"
             style="font-size:12px;font-variant:normal;font-weight:normal;writing-mode:lr-tb;fill:#000000;fill-opacity:1;fill-rule:nonzero;stroke:none;font-family:Serif;-inkscape-font-specification:Serif">...</tspan></text>
</g><path
         d="m 3153,912.676 1080,0 0,2241.43 -1080,0 0,-2241.43 z"
         inkscape:connector-curvature="0"
         id="path172"
         style="fill:none;stroke:#000000;stroke-width:6;stroke-linecap:square;stroke-linejoin:miter;stroke-miterlimit:10;stroke-opacity:1;stroke-dasharray:none" /><g
         transform="scale(10,10)"
         id="g174"><text
           transform="matrix(1,0,0,-1,324.3,415.41)"
           id="text176"><tspan
             x="0 6 11.328 17.327999 24 30"
             y="0"
             id="tspan178"
             style="font-size:12px;font-variant:normal;font-weight:normal;writing-mode:lr-tb;fill:#000000;fill-opacity:1;fill-rule:nonzero;stroke:none;font-family:Serif;-inkscape-font-specification:Serif">devSup</tspan><tspan
             x="0 6 12 18"
             y="15"
             id="tspan180"
             style="font-size:12px;font-variant:normal;font-weight:normal;writing-mode:lr-tb;fill:#000000;fill-opacity:1;fill-rule:nonzero;stroke:none;font-family:Serif;-inkscape-font-specification:Serif">node</tspan><tspan
             x="0 6 11.328 20.664"
             y="30"
             id="tspan182"
             style="font-size:12px;font-variant:normal;font-weight:normal;writing-mode:lr-tb;fill:#000000;fill-opacity:1;fill-rule:nonzero;stroke:none;font-family:Serif;-inkscape-font-specification:Serif">name</tspan><tspan
             x="0 6 12 16.667999 21.996"
             y="45"
             id="tspan184"
             style="font-size:12px;font-variant:normal;font-weight:normal;writing-mode:lr-tb;fill:#000000;fill-opacity:1;fill-rule:nonzero;stroke:none;font-family:Serif;-inkscape-font-specification:Serif">pdset</tspan><tspan
             x="0 6 12 16.667999 22.667999"
             y="60"
             id="tspan186"
             style="font-size:12px;font-variant:normal;font-weight:normal;writing-mode:lr-tb;fill:#000000;fill-opacity:1;fill-rule:nonzero;stroke:none;font-family:Serif;-inkscape-font-specification:Serif">pdsxt</tspan><tspan
             x="0 3.336 6.6719999 12.672 18.672001 24.672001 28.007999 34.007999 40.007999"
             y="75"
             id="tspan188"
             style="font-size:12px;font-variant:normal;font-weight:normal;writing-mode:lr-tb;fill:#000000;fill-opacity:1;fill-rule:nonzero;stroke:none;font-family:Serif;-inkscape-font-specification:Serif">link_type</tspan></text>
</g><path
         d="m 3243,3244.1 810,0 0,990 -810,0 0,-990 z"
         inkscape:connector-curvature="0"
         id="path190"
         style="fill:none;stroke:#000000;stroke-width:6;stroke-linecap:square;stroke-linejoin:miter;stroke-miterlimit:10;stroke-opacity:1;stroke-dasharray:none" /><g
         transform="scale(10,10)"
         id="g192"><text
           transform="matrix(1,0,0,-1,297.3,514.41)"
           id="text194"><tspan
             x="0 6 12 20.004 25.332001 30.66 36.66 40.655998 46.655998 55.32 61.32 67.32"
             y="0"
             id="tspan196"
             style="font-size:12px;font-variant:normal;font-weight:normal;writing-mode:lr-tb;fill:#000000;fill-opacity:1;fill-rule:nonzero;stroke:none;font-family:Serif;-inkscape-font-specification:Serif">dbRecordNode</tspan><tspan
             x="0 6 12 18"
             y="15"
             id="tspan198"
             style="font-size:12px;font-variant:normal;font-weight:normal;writing-mode:lr-tb;fill:#000000;fill-opacity:1;fill-rule:nonzero;stroke:none;font-family:Serif;-inkscape-font-specification:Serif">node</tspan><tspan
             x="0 6 9.9960003 15.324 20.652 26.652 30.648001"
             y="30"
             id="tspan200"
             style="font-size:12px;font-variant:normal;font-weight:normal;writing-mode:lr-tb;fill:#000000;fill-opacity:1;fill-rule:nonzero;stroke:none;font-family:Serif;-inkscape-font-specification:Serif">precord</tspan><tspan
             x="0 3.9960001 9.3240004 14.652 20.652 24.648001 30.648001 36.647999 41.976002 51.312"
             y="45"
             id="tspan202"
             style="font-size:12px;font-variant:normal;font-weight:normal;writing-mode:lr-tb;fill:#000000;fill-opacity:1;fill-rule:nonzero;stroke:none;font-family:Serif;-inkscape-font-specification:Serif">recordname</tspan><tspan
             x="0 3.336 9.3360004 13.332 19.332001 26.664 30 34.667999"
             y="60"
             id="tspan204"
             style="font-size:12px;font-variant:normal;font-weight:normal;writing-mode:lr-tb;fill:#000000;fill-opacity:1;fill-rule:nonzero;stroke:none;font-family:Serif;-inkscape-font-specification:Serif">infoList</tspan><tspan
             x="0 3.9960001 7.3319998 12.66 18.66"
             y="75"
             id="tspan206"
             style="font-size:12px;font-variant:normal;font-weight:normal;writing-mode:lr-tb;fill:#000000;fill-opacity:1;fill-rule:nonzero;stroke:none;font-family:Serif;-inkscape-font-specification:Serif">flags</tspan></text>
</g><path
         d="m 2973,4324.1 810,0 0,900 -810,0 0,-900 z"
         inkscape:connector-curvature="0"
         id="path208"
         style="fill:none;stroke:#000000;stroke-width:6;stroke-linecap:square;stroke-linejoin:miter;stroke-miterlimit:10;stroke-opacity:1;stroke-dasharray:none" /><path
         d="m 1463,5389.2 51.9,14.9 -51.9,14.9 0,-29.8 z"
         inkscape:connector-curvature="0"
         id="path210"
         style="fill:none;stroke:#000000;stroke-width:10.80000019;stroke-linecap:butt;stroke-linejoin:miter;stroke-miterlimit:10;stroke-opacity:1;stroke-dasharray:none" /><path
         d="m 1463,5389.2 51.9,14.9 -51.9,14.9 0,-14.9"
         inkscape:connector-curvature="0"
         id="path212"
         style="fill:#000000;fill-opacity:1;fill-rule:evenodd;stroke:none" /><path
         d="m 1458,5404.1 -195,0 0,-2070 -90,0"
         inkscape:connector-curvature="0"
         id="path214"
         style="fill:none;stroke:#000000;stroke-width:6;stroke-linecap:square;stroke-linejoin:miter;stroke-miterlimit:10;stroke-opacity:1;stroke-dasharray:none" /><path
         d="m 1422.6,3937.7 92.3,26.4 -92.3,26.4 0,-52.8 z"
         inkscape:connector-curvature="0"
         id="path216"
         style="fill:none;stroke:#000000;stroke-width:10.80000019;stroke-linecap:butt;stroke-linejoin:miter;stroke-miterlimit:10;stroke-opacity:1;stroke-dasharray:none" /><path
         d="m 1422.6,3937.7 92.3,26.4 -92.3,26.4 0,-26.4"
         inkscape:connector-curvature="0"
         id="path218"
         style="fill:#000000;fill-opacity:1;fill-rule:evenodd;stroke:none" /><path
         d="m 1417.6,3964.1 -64.6,0 0,-810 -180,0"
         inkscape:connector-curvature="0"
         id="path220"
         style="fill:none;stroke:#000000;stroke-width:6;stroke-linecap:square;stroke-linejoin:miter;stroke-miterlimit:10;stroke-opacity:1;stroke-dasharray:none" /><path
         d="m 1512.6,1417.7 92.3,26.4 -92.3,26.4 0,-52.8 z"
         inkscape:connector-curvature="0"
         id="path222"
         style="fill:none;stroke:#000000;stroke-width:10.80000019;stroke-linecap:butt;stroke-linejoin:miter;stroke-miterlimit:10;stroke-opacity:1;stroke-dasharray:none" /><path
         d="m 1512.6,1417.7 92.3,26.4 -92.3,26.4 0,-26.4"
         inkscape:connector-curvature="0"
         id="path224"
         style="fill:#000000;fill-opacity:1;fill-rule:evenodd;stroke:none" /><path
         d="m 1507.6,1444.1 -109.6,0 0,1620 -225,0"
         inkscape:connector-curvature="0"
         id="path226"
         style="fill:none;stroke:#000000;stroke-width:6;stroke-linecap:square;stroke-linejoin:miter;stroke-miterlimit:10;stroke-opacity:1;stroke-dasharray:none" /><path
         d="m 1422.6,607.703 92.3,26.399 -92.3,26.402 0,-52.801 z"
         inkscape:connector-curvature="0"
         id="path228"
         style="fill:none;stroke:#000000;stroke-width:10.80000019;stroke-linecap:butt;stroke-linejoin:miter;stroke-miterlimit:10;stroke-opacity:1;stroke-dasharray:none" /><path
         d="m 1422.6,607.703 92.3,26.399 -92.3,26.402 0,-26.402"
         inkscape:connector-curvature="0"
         id="path230"
         style="fill:#000000;fill-opacity:1;fill-rule:evenodd;stroke:none" /><path
         d="m 1417.6,634.102 -154.6,0 0,2339.998 -90,0"
         inkscape:connector-curvature="0"
         id="path232"
         style="fill:none;stroke:#000000;stroke-width:6;stroke-linecap:square;stroke-linejoin:miter;stroke-miterlimit:10;stroke-opacity:1;stroke-dasharray:none" /><path
         d="m 2862.6,607.703 92.3,26.399 -92.3,26.402 0,-52.801 z"
         inkscape:connector-curvature="0"
         id="path234"
         style="fill:none;stroke:#000000;stroke-width:10.80000019;stroke-linecap:butt;stroke-linejoin:miter;stroke-miterlimit:10;stroke-opacity:1;stroke-dasharray:none" /><path
         d="m 2862.6,607.703 92.3,26.399 -92.3,26.402 0,-26.402"
         inkscape:connector-curvature="0"
         id="path236"
         style="fill:#000000;fill-opacity:1;fill-rule:evenodd;stroke:none" /><path
         d="m 2857.6,634.102 -244.6,0 0,-540.0004 -360,0"
         inkscape:connector-curvature="0"
         id="path238"
         style="fill:none;stroke:#000000;stroke-width:6;stroke-linecap:square;stroke-linejoin:miter;stroke-miterlimit:10;stroke-opacity:1;stroke-dasharray:none" /><path
         d="m 2862.6,4927.7 92.3,26.4 -92.3,26.4 0,-52.8 z"
         inkscape:connector-curvature="0"
         id="path240"
         style="fill:none;stroke:#000000;stroke-width:10.80000019;stroke-linecap:butt;stroke-linejoin:miter;stroke-miterlimit:10;stroke-opacity:1;stroke-dasharray:none" /><path
         d="m 2862.6,4927.7 92.3,26.4 -92.3,26.4 0,-26.4"
         inkscape:connector-curvature="0"
         id="path242"
         style="fill:#000000;fill-opacity:1;fill-rule:evenodd;stroke:none" /><path
         d="m 2857.6,4954.1 -141.7,0 0,-1350 -102.9,0"
         inkscape:connector-curvature="0"
         id="path244"
         style="fill:none;stroke:#000000;stroke-width:6;stroke-linecap:square;stroke-linejoin:miter;stroke-miterlimit:10;stroke-opacity:1;stroke-dasharray:none" /><path
         d="m 3132.6,3937.7 92.3,26.4 -92.3,26.4 0,-52.8 z"
         inkscape:connector-curvature="0"
         id="path246"
         style="fill:none;stroke:#000000;stroke-width:10.80000019;stroke-linecap:butt;stroke-linejoin:miter;stroke-miterlimit:10;stroke-opacity:1;stroke-dasharray:none" /><path
         d="m 3132.6,3937.7 92.3,26.4 -92.3,26.4 0,-26.4"
         inkscape:connector-curvature="0"
         id="path248"
         style="fill:#000000;fill-opacity:1;fill-rule:evenodd;stroke:none" /><path
         d="m 3127.6,3964.1 -64.6,0 0,-540 -450,0"
         inkscape:connector-curvature="0"
         id="path250"
         style="fill:none;stroke:#000000;stroke-width:6;stroke-linecap:square;stroke-linejoin:miter;stroke-miterlimit:10;stroke-opacity:1;stroke-dasharray:none" /><path
         d="m 3042.6,2947.7 92.3,26.4 -92.3,26.4 0,-52.8 z"
         inkscape:connector-curvature="0"
         id="path252"
         style="fill:none;stroke:#000000;stroke-width:10.80000019;stroke-linecap:butt;stroke-linejoin:miter;stroke-miterlimit:10;stroke-opacity:1;stroke-dasharray:none" /><path
         d="m 3042.6,2947.7 92.3,26.4 -92.3,26.4 0,-26.4"
         inkscape:connector-curvature="0"
         id="path254"
         style="fill:#000000;fill-opacity:1;fill-rule:evenodd;stroke:none" /><path
         d="m 3037.6,2974.1 -208.6,0 0,-810 -216,0"
         inkscape:connector-curvature="0"
         id="path256"
         style="fill:none;stroke:#000000;stroke-width:6;stroke-linecap:square;stroke-linejoin:miter;stroke-miterlimit:10;stroke-opacity:1;stroke-dasharray:none" /><path
         d="m 3893,5479.2 51.9,14.9 -51.9,14.9 0,-29.8 z"
         inkscape:connector-curvature="0"
         id="path258"
         style="fill:none;stroke:#000000;stroke-width:10.80000019;stroke-linecap:butt;stroke-linejoin:miter;stroke-miterlimit:10;stroke-opacity:1;stroke-dasharray:none" /><path
         d="m 3893,5479.2 51.9,14.9 -51.9,14.9 0,-14.9"
         inkscape:connector-curvature="0"
         id="path260"
         style="fill:#000000;fill-opacity:1;fill-rule:evenodd;stroke:none" /><path
         d="m 3888,5494.1 -15,0 0,-900 -90,0"
         inkscape:connector-curvature="0"
         id="path262"
         style="fill:none;stroke:#000000;stroke-width:6;stroke-linecap:square;stroke-linejoin:miter;stroke-miterlimit:10;stroke-opacity:1;stroke-dasharray:none" /><g
         transform="scale(10,10)"
         id="g264"><text
           transform="matrix(1,0,0,-1,396.3,550.41)"
           id="text266"><tspan
             x="0 6 12 15.996 21.996 25.992001 31.992001 40.655998 46.655998 52.655998"
             y="0"
             id="tspan268"
             style="font-size:12px;font-variant:normal;font-weight:normal;writing-mode:lr-tb;fill:#000000;fill-opacity:1;fill-rule:nonzero;stroke:none;font-family:Serif;-inkscape-font-specification:Serif">dbInfoNode</tspan><tspan
             x="0 6 12 18"
             y="15"
             id="tspan270"
             style="font-size:12px;font-variant:normal;font-weight:normal;writing-mode:lr-tb;fill:#000000;fill-opacity:1;fill-rule:nonzero;stroke:none;font-family:Serif;-inkscape-font-specification:Serif">node</tspan><tspan
             x="0 6 11.328 20.664"
             y="30"
             id="tspan272"
             style="font-size:12px;font-variant:normal;font-weight:normal;writing-mode:lr-tb;fill:#000000;fill-opacity:1;fill-rule:nonzero;stroke:none;font-family:Serif;-inkscape-font-specification:Serif">name</tspan><tspan
             x="0 4.6680002 8.0039997 12 15.336 21.336"
             y="45"
             id="tspan274"
             style="font-size:12px;font-variant:normal;font-weight:normal;writing-mode:lr-tb;fill:#000000;fill-opacity:1;fill-rule:nonzero;stroke:none;font-family:Serif;-inkscape-font-specification:Serif">string</tspan><tspan
             x="0 6 11.328 14.664 20.664"
             y="60"
             id="tspan276"
             style="font-size:12px;font-variant:normal;font-weight:normal;writing-mode:lr-tb;fill:#000000;fill-opacity:1;fill-rule:nonzero;stroke:none;font-family:Serif;-inkscape-font-specification:Serif">value</tspan></text>
</g><path
         d="m 3963,4864.1 720,0 0,720 -720,0 0,-720 z"
         inkscape:connector-curvature="0"
         id="path278"
         style="fill:none;stroke:#000000;stroke-width:6;stroke-linecap:square;stroke-linejoin:miter;stroke-miterlimit:10;stroke-opacity:1;stroke-dasharray:none" /></g></g></svg>