<?xml version="1.0" encoding="UTF-8" standalone="no"?>
<!-- Created with Inkscape (http://www.inkscape.org/) -->

<svg
   xmlns:dc="http://purl.org/dc/elements/1.1/"
   xmlns:cc="http://creativecommons.org/ns#"
   xmlns:rdf="http://www.w3.org/1999/02/22-rdf-syntax-ns#"
   xmlns:svg="http://www.w3.org/2000/svg"
   xmlns="http://www.w3.org/2000/svg"
   xmlns:inkscape="http://www.inkscape.org/namespaces/inkscape"
   version="1.1"
   width="337.5"
   height="68.75"
   id="svg2"
   xml:space="preserve"><metadata
     id="metadata8"><rdf:RDF><cc:Work
         rdf:about=""><dc:format>image/svg+xml</dc:format><dc:type
           rdf:resource="http://purl.org/dc/dcmitype/StillImage" /></cc:Work></rdf:RDF></metadata><defs
     id="defs6" /><g
     transform="matrix(1.25,0,0,-1.25,0,68.75)"
     id="g10"><g
       transform="scale(0.1,0.1)"
       id="g12"><path
         d="m 1083.01,362.988 540,0 0,180 -540,0 0,-180 z"
         inkscape:connector-curvature="0"
         id="path14"
         style="fill:#ffffff;fill-opacity:1;fill-rule:evenodd;stroke:none" /><path
         d="m 1083.01,362.988 540,0 0,180 -540,0 0,-180 z"
         inkscape:connector-curvature="0"
         id="path16"
         style="fill:none;stroke:#000000;stroke-width:6;stroke-linecap:square;stroke-linejoin:miter;stroke-miterlimit:3.8599999;stroke-opacity:1;stroke-dasharray:none" /><g
         transform="scale(10,10)"
         id="g18"><text
           transform="matrix(1,0,0,-1,117.3,42.4398)"
           id="text20"><tspan
             x="0 2.5020001 7.506 12.51 14.508 19.511999 24.011999 26.514 32.516998"
             y="0"
             id="tspan22"
             style="font-size:9px;font-variant:normal;writing-mode:lr-tb;fill:#000000;fill-opacity:1;fill-rule:nonzero;stroke:none;font-family:f-0;-inkscape-font-specification:f-0-0">InLink PP</tspan></text>
</g><path
         d="m 3.01172,182.988 180.00028,0 0,-179.99972 -180.00028,0 0,179.99972 z m 1259.99828,0 180,0 0,-179.99972 -180,0 0,179.99972 z m 1260,0 180,0 0,-179.99972 -180,0 0,179.99972 z"
         inkscape:connector-curvature="0"
         id="path24"
         style="fill:none;stroke:#000000;stroke-width:6;stroke-linecap:butt;stroke-linejoin:miter;stroke-miterlimit:3.8599999;stroke-opacity:1;stroke-dasharray:none" /><path
         d="m 453.012,2.98828 540,0 0,180 -540,0 0,-180 z"
         inkscape:connector-curvature="0"
         id="path26"
         style="fill:#ffffff;fill-opacity:1;fill-rule:evenodd;stroke:none" /><path
         d="m 453.012,2.98828 540,0 0,180 -540,0 0,-180 z"
         inkscape:connector-curvature="0"
         id="path28"
         style="fill:none;stroke:#000000;stroke-width:6;stroke-linecap:square;stroke-linejoin:miter;stroke-miterlimit:3.8599999;stroke-opacity:1;stroke-dasharray:none" /><path
         d="m 1713.01,2.98828 540,0 0,180 -540,0 0,-180 z"
         inkscape:connector-curvature="0"
         id="path30"
         style="fill:#ffffff;fill-opacity:1;fill-rule:evenodd;stroke:none" /><path
         d="m 1713.01,2.98828 540,0 0,180 -540,0 0,-180 z"
         inkscape:connector-curvature="0"
         id="path32"
         style="fill:none;stroke:#000000;stroke-width:6;stroke-linecap:square;stroke-linejoin:miter;stroke-miterlimit:3.8599999;stroke-opacity:1;stroke-dasharray:none" /><g
         transform="scale(10,10)"
         id="g34"><text
           transform="matrix(1,0,0,-1,6.43984,7.15977)"
           id="text36"><tspan
             x="0 48.57309 54.07209 60.570091 65.574089 70.569107 72.567108 77.571106 125.99516 174.56825 180.06725 186.56525 191.56924 196.56425 198.56226 203.56625 251.99068"
             y="0"
             id="tspan38"
             style="font-size:9px;font-variant:normal;writing-mode:lr-tb;fill:#000000;fill-opacity:1;fill-rule:nonzero;stroke:none;font-family:f-0;-inkscape-font-specification:f-0-0">AFwdLinkBFwdLinkC</tspan></text>
</g><path
         d="m 443.91,92.9883 -48.601,0 m 2.5,-13.1992 46.101,13.1992 -46.101,13.2107 m -2.5,-13.2107 -212.297,0 m 1070.898,0 -48.6,0 m 2.5,-13.1992 46.1,13.1992 -46.1,13.2107 m -2.5,-13.2107 -212.298,0 m 710.898,0 -48.6,0 m 2.5,-13.1992 46.1,13.1992 -46.1,13.2107 m -2.5,-13.2107 -212.3,0 m 1070.9,0 -48.6,0 m 2.5,-13.1992 46.1,13.1992 -46.1,13.2107 m -2.5,-13.2107 -212.3,0 m -1179.1,359.9997 -48.6,0 m 2.5,-13.199 46.1,13.199 -46.1,13.211 m -2.5,-13.211 -932.2983,0 0,-270 m 2519.9983,9.102 0,48.601 m -13.21,-2.5 13.21,-46.101 13.2,46.101 m -13.2,2.5 0,212.297 -990,0"
         inkscape:connector-curvature="0"
         id="path40"
         style="fill:none;stroke:#000000;stroke-width:6;stroke-linecap:butt;stroke-linejoin:miter;stroke-miterlimit:3.8599999;stroke-opacity:1;stroke-dasharray:none" /></g></g></svg>