<?xml version="1.0" encoding="UTF-8" standalone="no"?>
<!-- Created with Inkscape (http://www.inkscape.org/) -->

<svg
   xmlns:dc="http://purl.org/dc/elements/1.1/"
   xmlns:cc="http://creativecommons.org/ns#"
   xmlns:rdf="http://www.w3.org/1999/02/22-rdf-syntax-ns#"
   xmlns:svg="http://www.w3.org/2000/svg"
   xmlns="http://www.w3.org/2000/svg"
   xmlns:inkscape="http://www.inkscape.org/namespaces/inkscape"
   version="1.1"
   width="326.25"
   height="113.75"
   id="svg2"
   xml:space="preserve"><metadata
     id="metadata8"><rdf:RDF><cc:Work
         rdf:about=""><dc:format>image/svg+xml</dc:format><dc:type
           rdf:resource="http://purl.org/dc/dcmitype/StillImage" /></cc:Work></rdf:RDF></metadata><defs
     id="defs6" /><g
     transform="matrix(1.25,0,0,-1.25,0,113.75)"
     id="g10"><g
       transform="scale(0.1,0.1)"
       id="g12"><path
         d="m 2433.01,542.988 180,0 0,180 -180,0 0,-180 z"
         inkscape:connector-curvature="0"
         id="path14"
         style="fill:none;stroke:#000000;stroke-width:6;stroke-linecap:butt;stroke-linejoin:miter;stroke-miterlimit:3.8599999;stroke-opacity:1;stroke-dasharray:none" /><path
         d="m 1623.01,542.988 540,0 0,180 -540,0 0,-180 z"
         inkscape:connector-curvature="0"
         id="path16"
         style="fill:none;stroke:#000000;stroke-width:6;stroke-linecap:butt;stroke-linejoin:miter;stroke-miterlimit:3.8599999;stroke-opacity:1;stroke-dasharray:none" /><g
         transform="scale(10,10)"
         id="g18"><text
           transform="matrix(1,0,0,-1,249.01,60.45)"
           id="text20"><tspan
             x="0 -78.417198 -72.918198 -66.420197 -61.416199 -56.421185 -54.423183 -49.419186"
             y="0"
             id="tspan22"
             style="font-size:9px;font-variant:normal;writing-mode:lr-tb;fill:#000000;fill-opacity:1;fill-rule:nonzero;stroke:none;font-family:f-0;-inkscape-font-specification:f-0-0">BFwdLink</tspan></text>
</g><path
         d="m 1623.01,182.988 540,0 0,180 -540,0 0,-180 z"
         inkscape:connector-curvature="0"
         id="path24"
         style="fill:none;stroke:#000000;stroke-width:6;stroke-linecap:butt;stroke-linejoin:miter;stroke-miterlimit:3.8599999;stroke-opacity:1;stroke-dasharray:none" /><g
         transform="scale(10,10)"
         id="g26"><text
           transform="matrix(1,0,0,-1,170.59,24.45)"
           id="text28"><tspan
             x="0 5.4990001 11.997 17.000999 22.004999 24.003 29.007"
             y="0"
             id="tspan30"
             style="font-size:9px;font-variant:normal;writing-mode:lr-tb;fill:#000000;fill-opacity:1;fill-rule:nonzero;stroke:none;font-family:f-0;-inkscape-font-specification:f-0-0">FwdLink</tspan></text>
</g><path
         d="m 633.012,362.988 540,0 0,180 -540,0 0,-180 z"
         inkscape:connector-curvature="0"
         id="path32"
         style="fill:none;stroke:#000000;stroke-width:6;stroke-linecap:butt;stroke-linejoin:miter;stroke-miterlimit:3.8599999;stroke-opacity:1;stroke-dasharray:none" /><g
         transform="scale(10,10)"
         id="g34"><text
           transform="matrix(1,0,0,-1,78.4398,42.3102)"
           id="text36"><tspan
             x="0 2.2319801 7.23598 12.23998 17.24398 22.238997"
             y="0"
             id="tspan38"
             style="font-size:9px;font-variant:normal;writing-mode:lr-tb;fill:#000000;fill-opacity:1;fill-rule:nonzero;stroke:none;font-family:f-0;-inkscape-font-specification:f-0-0">fanout</tspan></text>
</g><path
         d="m 633.012,2.98828 540,0 0,180 -540,0 0,-180 z"
         inkscape:connector-curvature="0"
         id="path40"
         style="fill:none;stroke:#000000;stroke-width:6;stroke-linecap:butt;stroke-linejoin:miter;stroke-miterlimit:3.8599999;stroke-opacity:1;stroke-dasharray:none" /><g
         transform="scale(10,10)"
         id="g42"><text
           transform="matrix(1,0,0,-1,71.5898,6.45)"
           id="text44"><tspan
             x="0 2.5020001 7.506 12.51 14.508 19.511999 24.011999 26.514 32.516998"
             y="0"
             id="tspan46"
             style="font-size:9px;font-variant:normal;writing-mode:lr-tb;fill:#000000;fill-opacity:1;fill-rule:nonzero;stroke:none;font-family:f-0;-inkscape-font-specification:f-0-0">InLink PP</tspan></text>
</g><path
         d="m 633.012,722.988 540,0 0,180 -540,0 0,-180 z"
         inkscape:connector-curvature="0"
         id="path48"
         style="fill:none;stroke:#000000;stroke-width:6;stroke-linecap:butt;stroke-linejoin:miter;stroke-miterlimit:3.8599999;stroke-opacity:1;stroke-dasharray:none" /><g
         transform="scale(10,10)"
         id="g50"><text
           transform="matrix(1,0,0,-1,71.5898,78.45)"
           id="text52"><tspan
             x="0 2.5020001 7.506 12.51 14.508 19.511999 24.011999 26.514 32.516998"
             y="0"
             id="tspan54"
             style="font-size:9px;font-variant:normal;writing-mode:lr-tb;fill:#000000;fill-opacity:1;fill-rule:nonzero;stroke:none;font-family:f-0;-inkscape-font-specification:f-0-0">InLink PP</tspan></text>
</g><path
         d="m 3.01172,362.988 180,0 0,180 -180,0 0,-180 z"
         inkscape:connector-curvature="0"
         id="path56"
         style="fill:none;stroke:#000000;stroke-width:6;stroke-linecap:butt;stroke-linejoin:miter;stroke-miterlimit:3.8599999;stroke-opacity:1;stroke-dasharray:none" /><g
         transform="scale(10,10)"
         id="g58"><text
           transform="matrix(1,0,0,-1,6.01016,42.45)"
           id="text60"><tspan
             x="0"
             y="0"
             id="tspan62"
             style="font-size:9px;font-variant:normal;writing-mode:lr-tb;fill:#000000;fill-opacity:1;fill-rule:nonzero;stroke:none;font-family:f-0;-inkscape-font-specification:f-0-0">A</tspan></text>
</g><path
         d="m 2433.01,182.988 180,0 0,180 -180,0 0,-180 z"
         inkscape:connector-curvature="0"
         id="path64"
         style="fill:none;stroke:#000000;stroke-width:6;stroke-linecap:butt;stroke-linejoin:miter;stroke-miterlimit:3.8599999;stroke-opacity:1;stroke-dasharray:none" /><g
         transform="scale(10,10)"
         id="g66"><text
           transform="matrix(1,0,0,-1,249.01,24.45)"
           id="text68"><tspan
             x="0"
             y="0"
             id="tspan70"
             style="font-size:9px;font-variant:normal;writing-mode:lr-tb;fill:#000000;fill-opacity:1;fill-rule:nonzero;stroke:none;font-family:f-0;-inkscape-font-specification:f-0-0">C</tspan></text>
</g><path
         d="m 623.91,812.988 -48.601,0 m 2.5,-13.199 46.101,13.199 -46.101,13.211 m -2.5,-13.211 -482.2973,0 0,-270 M 623.91,92.9883 l -48.601,0 m 2.5,-13.1992 46.101,13.1992 -46.101,13.2107 m -2.5,-13.2107 -482.2973,0 0,269.9997 M 2523.01,173.891 l 0,-48.481 m 13.2,2.5 -13.2,45.981 -13.21,-45.981 m 13.21,-2.5 0,-32.4217 -1350,0 m 1350,639.1017 0,48.601 m -13.21,-2.5 13.21,-46.101 13.2,46.101 m -13.2,2.5 0,32.297 -1350,0 m 170.9,-360 -48.6,0 m 2.5,-13.199 46.1,13.199 -46.1,13.211 m -2.5,-13.211 -122.3,0 m 1250.9,180 -48.6,0 m 2.5,-13.199 46.1,13.199 -46.1,13.211 m -2.5,-13.211 -212.3,0 m 260.9,-360 -48.6,0 m 2.5,-13.199 46.1,13.199 -46.1,13.211 m -2.5,-13.211 -212.3,0 m -549.1,360 -48.6,0 m 2.5,-13.199 46.1,13.199 -46.1,13.211 m -2.5,-13.211 -212.3,0 0,-180 m 260.9,-180 -48.6,0 m 2.5,-13.199 46.1,13.199 -46.1,13.211 m -2.5,-13.211 -212.3,0 0,180"
         inkscape:connector-curvature="0"
         id="path72"
         style="fill:none;stroke:#000000;stroke-width:6;stroke-linecap:butt;stroke-linejoin:miter;stroke-miterlimit:3.8599999;stroke-opacity:1;stroke-dasharray:none" /></g></g></svg>