<?xml version="1.0" encoding="UTF-8" standalone="no"?>
<!-- Created with Inkscape (http://www.inkscape.org/) -->

<svg
   xmlns:dc="http://purl.org/dc/elements/1.1/"
   xmlns:cc="http://creativecommons.org/ns#"
   xmlns:rdf="http://www.w3.org/1999/02/22-rdf-syntax-ns#"
   xmlns:svg="http://www.w3.org/2000/svg"
   xmlns="http://www.w3.org/2000/svg"
   xmlns:inkscape="http://www.inkscape.org/namespaces/inkscape"
   version="1.1"
   width="270"
   height="68.75"
   id="svg2"
   xml:space="preserve"><metadata
     id="metadata8"><rdf:RDF><cc:Work
         rdf:about=""><dc:format>image/svg+xml</dc:format><dc:type
           rdf:resource="http://purl.org/dc/dcmitype/StillImage" /></cc:Work></rdf:RDF></metadata><defs
     id="defs6" /><g
     transform="matrix(1.25,0,0,-1.25,0,68.75)"
     id="g10"><g
       transform="scale(0.1,0.1)"
       id="g12"><path
         d="m 903.012,362.988 450,0 0,180 -450,0 0,-180 z"
         inkscape:connector-curvature="0"
         id="path14"
         style="fill:none;stroke:#000000;stroke-width:6;stroke-linecap:butt;stroke-linejoin:miter;stroke-miterlimit:3.8599999;stroke-opacity:1;stroke-dasharray:none" /><g
         transform="scale(10,10)"
         id="g16"><text
           transform="matrix(1,0,0,-1,99.3,42.4398)"
           id="text18"><tspan
             x="0 5.4990001 10.503 17.000999 23.004"
             y="0"
             id="tspan20"
             style="font-size:9px;font-variant:normal;writing-mode:lr-tb;fill:#000000;fill-opacity:1;fill-rule:nonzero;stroke:none;font-family:f-0;-inkscape-font-specification:f-0-0">FLNK1</tspan></text>
</g><path
         d="m 1713.01,362.988 450,0 0,180 -450,0 0,-180 z"
         inkscape:connector-curvature="0"
         id="path22"
         style="fill:none;stroke:#000000;stroke-width:6;stroke-linecap:butt;stroke-linejoin:miter;stroke-miterlimit:3.8599999;stroke-opacity:1;stroke-dasharray:none" /><g
         transform="scale(10,10)"
         id="g24"><text
           transform="matrix(1,0,0,-1,180.3,42.4398)"
           id="text26"><tspan
             x="0 5.4990001 10.503 17.000999 23.004"
             y="0"
             id="tspan28"
             style="font-size:9px;font-variant:normal;writing-mode:lr-tb;fill:#000000;fill-opacity:1;fill-rule:nonzero;stroke:none;font-family:f-0;-inkscape-font-specification:f-0-0">FLNK2</tspan></text>
</g><path
         d="m 903.012,2.98828 450,0 0,180 -450,0 0,-180 z"
         inkscape:connector-curvature="0"
         id="path30"
         style="fill:none;stroke:#000000;stroke-width:6;stroke-linecap:butt;stroke-linejoin:miter;stroke-miterlimit:3.8599999;stroke-opacity:1;stroke-dasharray:none" /><g
         transform="scale(10,10)"
         id="g32"><text
           transform="matrix(1,0,0,-1,99.3,6.43984)"
           id="text34"><tspan
             x="0 5.4990001 10.503 17.000999 23.004"
             y="0"
             id="tspan36"
             style="font-size:9px;font-variant:normal;writing-mode:lr-tb;fill:#000000;fill-opacity:1;fill-rule:nonzero;stroke:none;font-family:f-0;-inkscape-font-specification:f-0-0">FLNK3</tspan></text>
</g><path
         d="m 1713.01,2.98828 450,0 0,180 -450,0 0,-180 z"
         inkscape:connector-curvature="0"
         id="path38"
         style="fill:none;stroke:#000000;stroke-width:6;stroke-linecap:butt;stroke-linejoin:miter;stroke-miterlimit:3.8599999;stroke-opacity:1;stroke-dasharray:none" /><g
         transform="scale(10,10)"
         id="g40"><text
           transform="matrix(1,0,0,-1,180.3,6.43984)"
           id="text42"><tspan
             x="0 5.4990001 10.503 17.000999 23.004"
             y="0"
             id="tspan44"
             style="font-size:9px;font-variant:normal;writing-mode:lr-tb;fill:#000000;fill-opacity:1;fill-rule:nonzero;stroke:none;font-family:f-0;-inkscape-font-specification:f-0-0">FLNK4</tspan></text>
</g><path
         d="m 1703.91,92.9883 -48.6,0 m 2.5,-13.1992 46.1,13.1992 -46.1,13.2107 m -2.5,-13.2107 -302.3,0 m 350.9,359.9997 -48.6,0 m 2.5,-13.199 46.1,13.199 -46.1,13.211 m -2.5,-13.211 -302.3,0 m -1349.99828,-90 450.00028,0 0,-180 -450.00028,0 0,180 z"
         inkscape:connector-curvature="0"
         id="path46"
         style="fill:none;stroke:#000000;stroke-width:6;stroke-linecap:butt;stroke-linejoin:miter;stroke-miterlimit:3.8599999;stroke-opacity:1;stroke-dasharray:none" /><g
         transform="scale(10,10)"
         id="g48"><text
           transform="matrix(1,0,0,-1,9.3,24.4398)"
           id="text50"><tspan
             x="0 2.2319801 7.23598 12.23998 17.24398 22.238997"
             y="0"
             id="tspan52"
             style="font-size:9px;font-variant:normal;writing-mode:lr-tb;fill:#000000;fill-opacity:1;fill-rule:nonzero;stroke:none;font-family:f-0;-inkscape-font-specification:f-0-0">fanout</tspan></text>
</g><path
         d="m 623.91,272.988 -48.601,0"
         inkscape:connector-curvature="0"
         id="path54"
         style="fill:none;stroke:#000000;stroke-width:6;stroke-linecap:butt;stroke-linejoin:miter;stroke-miterlimit:3.8599999;stroke-opacity:1;stroke-dasharray:none" /><path
         d="m 577.809,259.789 46.101,13.199 -46.101,13.211"
         inkscape:connector-curvature="0"
         id="path56"
         style="fill:none;stroke:#000000;stroke-width:6;stroke-linecap:butt;stroke-linejoin:miter;stroke-miterlimit:3.8599999;stroke-opacity:1;stroke-dasharray:none" /><path
         d="m 575.309,272.988 -122.297,0"
         inkscape:connector-curvature="0"
         id="path58"
         style="fill:none;stroke:#000000;stroke-width:6;stroke-linecap:butt;stroke-linejoin:miter;stroke-miterlimit:3.8599999;stroke-opacity:1;stroke-dasharray:none" /><path
         d="m 893.91,452.988 -48.601,0"
         inkscape:connector-curvature="0"
         id="path60"
         style="fill:none;stroke:#000000;stroke-width:6;stroke-linecap:butt;stroke-linejoin:miter;stroke-miterlimit:3.8599999;stroke-opacity:1;stroke-dasharray:none" /><path
         d="m 847.809,439.789 46.101,13.199 -46.101,13.211"
         inkscape:connector-curvature="0"
         id="path62"
         style="fill:none;stroke:#000000;stroke-width:6;stroke-linecap:butt;stroke-linejoin:miter;stroke-miterlimit:3.8599999;stroke-opacity:1;stroke-dasharray:none" /><path
         d="m 845.309,452.988 -212.297,0 0,-180"
         inkscape:connector-curvature="0"
         id="path64"
         style="fill:none;stroke:#000000;stroke-width:6;stroke-linecap:butt;stroke-linejoin:miter;stroke-miterlimit:3.8599999;stroke-opacity:1;stroke-dasharray:none" /><path
         d="m 893.91,92.9883 -48.601,0"
         inkscape:connector-curvature="0"
         id="path66"
         style="fill:none;stroke:#000000;stroke-width:6;stroke-linecap:butt;stroke-linejoin:miter;stroke-miterlimit:3.8599999;stroke-opacity:1;stroke-dasharray:none" /><path
         d="M 847.809,79.7891 893.91,92.9883 847.809,106.199"
         inkscape:connector-curvature="0"
         id="path68"
         style="fill:none;stroke:#000000;stroke-width:6;stroke-linecap:butt;stroke-linejoin:miter;stroke-miterlimit:3.8599999;stroke-opacity:1;stroke-dasharray:none" /><path
         d="m 845.309,92.9883 -212.297,0 0,179.9997"
         inkscape:connector-curvature="0"
         id="path70"
         style="fill:none;stroke:#000000;stroke-width:6;stroke-linecap:butt;stroke-linejoin:miter;stroke-miterlimit:3.8599999;stroke-opacity:1;stroke-dasharray:none" /></g></g></svg>