<?xml version="1.0" encoding="UTF-8" standalone="no"?>
<!-- Created with Inkscape (http://www.inkscape.org/) -->

<svg
   xmlns:dc="http://purl.org/dc/elements/1.1/"
   xmlns:cc="http://creativecommons.org/ns#"
   xmlns:rdf="http://www.w3.org/1999/02/22-rdf-syntax-ns#"
   xmlns:svg="http://www.w3.org/2000/svg"
   xmlns="http://www.w3.org/2000/svg"
   xmlns:inkscape="http://www.inkscape.org/namespaces/inkscape"
   version="1.1"
   width="393.75"
   height="23.75"
   id="svg2"
   xml:space="preserve"><metadata
     id="metadata8"><rdf:RDF><cc:Work
         rdf:about=""><dc:format>image/svg+xml</dc:format><dc:type
           rdf:resource="http://purl.org/dc/dcmitype/StillImage" /></cc:Work></rdf:RDF></metadata><defs
     id="defs6" /><g
     transform="matrix(1.25,0,0,-1.25,0,23.75)"
     id="g10"><g
       transform="scale(0.1,0.1)"
       id="g12"><path
         d="m 543.012,2.98828 720,0 0,180 -720,0 0,-180 z"
         inkscape:connector-curvature="0"
         id="path14"
         style="fill:none;stroke:#000000;stroke-width:6;stroke-linecap:butt;stroke-linejoin:miter;stroke-miterlimit:3.8599999;stroke-opacity:1;stroke-dasharray:none" /><g
         transform="scale(10,10)"
         id="g16"><text
           transform="matrix(1,0,0,-1,62.5801,6.45)"
           id="text18"><tspan
             x="0 5.0040002 10.008 16.011 20.511 25.514999 30.509821 36.161842 41.165844 45.665844 47.663845 51.929665"
             y="0"
             id="tspan20"
             style="font-size:9px;font-variant:normal;writing-mode:lr-tb;fill:#000000;fill-opacity:1;fill-rule:nonzero;stroke:none;font-family:f-0;-inkscape-font-specification:f-0-0">dbScanPasive</tspan></text>
</g><path
         d="m 3.01172,2.98828 360,0 0,180 -360,0 0,-180 z"
         inkscape:connector-curvature="0"
         id="path22"
         style="fill:none;stroke:#000000;stroke-width:6;stroke-linecap:butt;stroke-linejoin:miter;stroke-miterlimit:3.8599999;stroke-opacity:1;stroke-dasharray:none" /><g
         transform="scale(10,10)"
         id="g24"><text
           transform="matrix(1,0,0,-1,5.81992,6.45)"
           id="text26"><tspan
             x="0 6.0029998 12.006 18.009001"
             y="0"
             id="tspan28"
             style="font-size:9px;font-variant:normal;writing-mode:lr-tb;fill:#000000;fill-opacity:1;fill-rule:nonzero;stroke:none;font-family:f-0;-inkscape-font-specification:f-0-0">ASYN</tspan></text>
</g><path
         d="m 1433.91,92.9883 -48.6,0 m 2.5,-13.1992 46.1,13.1992 -46.1,13.2107 m -2.5,-13.2107 -122.3,0 m -729.1,0 -48.601,0 m 2.5,-13.1992 46.101,13.1992 -46.101,13.2107 m -2.5,-13.2107 -122.297,0 m 1619.998,89.9997 720,0 0,-179.99972 -720,0 0,179.99972 z"
         inkscape:connector-curvature="0"
         id="path30"
         style="fill:none;stroke:#000000;stroke-width:6;stroke-linecap:butt;stroke-linejoin:miter;stroke-miterlimit:3.8599999;stroke-opacity:1;stroke-dasharray:none" /><g
         transform="scale(10,10)"
         id="g32"><text
           transform="matrix(1,0,0,-1,206.58,6.45)"
           id="text34"><tspan
             x="0 5.0040002 10.008 16.011 20.511 25.514999 30.509821 36.161842 41.165844 45.665844 47.663845 51.929665"
             y="0"
             id="tspan36"
             style="font-size:9px;font-variant:normal;writing-mode:lr-tb;fill:#000000;fill-opacity:1;fill-rule:nonzero;stroke:none;font-family:f-0;-inkscape-font-specification:f-0-0">dbScanPasive</tspan></text>
</g><path
         d="m 1443.01,2.98828 360,0 0,180 -360,0 0,-180 z"
         inkscape:connector-curvature="0"
         id="path38"
         style="fill:none;stroke:#000000;stroke-width:6;stroke-linecap:butt;stroke-linejoin:miter;stroke-miterlimit:3.8599999;stroke-opacity:1;stroke-dasharray:none" /><g
         transform="scale(10,10)"
         id="g40"><text
           transform="matrix(1,0,0,-1,149.82,6.45)"
           id="text42"><tspan
             x="0 6.0029998 12.006 18.009001"
             y="0"
             id="tspan44"
             style="font-size:9px;font-variant:normal;writing-mode:lr-tb;fill:#000000;fill-opacity:1;fill-rule:nonzero;stroke:none;font-family:f-0;-inkscape-font-specification:f-0-0">ASYN</tspan></text>
</g><path
         d="m 2873.91,92.9883 -48.6,0 m 2.5,-13.1992 46.1,13.1992 -46.1,13.2107 m -2.5,-13.2107 -122.3,0 m -729.1,0 -48.6,0 m 2.5,-13.1992 46.1,13.1992 -46.1,13.2107 m -2.5,-13.2107 -122.3,0"
         inkscape:connector-curvature="0"
         id="path46"
         style="fill:none;stroke:#000000;stroke-width:6;stroke-linecap:butt;stroke-linejoin:miter;stroke-miterlimit:3.8599999;stroke-opacity:1;stroke-dasharray:none" /><g
         transform="scale(10,10)"
         id="g48"><text
           transform="matrix(1,0,0,-1,297.3,9.3)"
           id="text50"><tspan
             x="0 3.892 7.7839999 11.676 15.568"
             y="0"
             id="tspan52"
             style="font-size:14px;font-variant:normal;writing-mode:lr-tb;fill:#000000;fill-opacity:1;fill-rule:nonzero;stroke:none;font-family:f-0;-inkscape-font-specification:f-0-0">. . .</tspan></text>
</g></g></g></svg>