<?xml version="1.0" encoding="UTF-8" standalone="no"?>
<!-- Created with Inkscape (http://www.inkscape.org/) -->

<svg
   xmlns:dc="http://purl.org/dc/elements/1.1/"
   xmlns:cc="http://creativecommons.org/ns#"
   xmlns:rdf="http://www.w3.org/1999/02/22-rdf-syntax-ns#"
   xmlns:svg="http://www.w3.org/2000/svg"
   xmlns="http://www.w3.org/2000/svg"
   xmlns:inkscape="http://www.inkscape.org/namespaces/inkscape"
   version="1.1"
   width="326.25"
   height="113.75"
   id="svg2"
   xml:space="preserve"><metadata
     id="metadata8"><rdf:RDF><cc:Work
         rdf:about=""><dc:format>image/svg+xml</dc:format><dc:type
           rdf:resource="http://purl.org/dc/dcmitype/StillImage" /></cc:Work></rdf:RDF></metadata><defs
     id="defs6" /><g
     transform="matrix(1.25,0,0,-1.25,0,113.75)"
     id="g10"><g
       transform="scale(0.1,0.1)"
       id="g12"><path
         d="m 2433.01,722.988 180,0 0,-180 -180,0 0,180 z m -810,0 540,0 0,-180 -540,0 0,180 z"
         inkscape:connector-curvature="0"
         id="path14"
         style="fill:none;stroke:#000000;stroke-width:6;stroke-linecap:butt;stroke-linejoin:miter;stroke-miterlimit:3.8599999;stroke-opacity:1;stroke-dasharray:none" /><g
         transform="scale(10,10)"
         id="g16"><text
           transform="matrix(1,0,0,-1,249.01,60.4398)"
           id="text18"><tspan
             x="0 -78.417198 -72.918198 -66.420197 -61.416199 -56.421185 -54.423183 -49.419186"
             y="0"
             id="tspan20"
             style="font-size:9px;font-variant:normal;writing-mode:lr-tb;fill:#000000;fill-opacity:1;fill-rule:nonzero;stroke:none;font-family:f-0;-inkscape-font-specification:f-0-0">BFwdLink</tspan></text>
</g><path
         d="m 1623.01,182.988 540,0 0,180 -540,0 0,-180 z"
         inkscape:connector-curvature="0"
         id="path22"
         style="fill:none;stroke:#000000;stroke-width:6;stroke-linecap:butt;stroke-linejoin:miter;stroke-miterlimit:3.8599999;stroke-opacity:1;stroke-dasharray:none" /><g
         transform="scale(10,10)"
         id="g24"><text
           transform="matrix(1,0,0,-1,170.59,24.4398)"
           id="text26"><tspan
             x="0 5.4990001 11.997 17.000999 22.004999 24.003 29.007"
             y="0"
             id="tspan28"
             style="font-size:9px;font-variant:normal;writing-mode:lr-tb;fill:#000000;fill-opacity:1;fill-rule:nonzero;stroke:none;font-family:f-0;-inkscape-font-specification:f-0-0">FwdLink</tspan></text>
</g><path
         d="m 633.012,362.988 540,0 0,180 -540,0 0,-180 z"
         inkscape:connector-curvature="0"
         id="path30"
         style="fill:none;stroke:#000000;stroke-width:6;stroke-linecap:butt;stroke-linejoin:miter;stroke-miterlimit:3.8599999;stroke-opacity:1;stroke-dasharray:none" /><g
         transform="scale(10,10)"
         id="g32"><text
           transform="matrix(1,0,0,-1,78.4398,42.3102)"
           id="text34"><tspan
             x="0 2.2319801 7.23598 12.23998 17.24398 22.238997"
             y="0"
             id="tspan36"
             style="font-size:9px;font-variant:normal;writing-mode:lr-tb;fill:#000000;fill-opacity:1;fill-rule:nonzero;stroke:none;font-family:f-0;-inkscape-font-specification:f-0-0">fanout</tspan></text>
</g><path
         d="m 633.012,2.98828 540,0 0,180 -540,0 0,-180 z"
         inkscape:connector-curvature="0"
         id="path38"
         style="fill:none;stroke:#000000;stroke-width:6;stroke-linecap:butt;stroke-linejoin:miter;stroke-miterlimit:3.8599999;stroke-opacity:1;stroke-dasharray:none" /><g
         transform="scale(10,10)"
         id="g40"><text
           transform="matrix(1,0,0,-1,68.7301,6.43984)"
           id="text42"><tspan
             x="0 2.5020001 8.0009212 13.499942 16.001942 21.500961 26.504868 29.006868 35.504868 41.507866"
             y="0"
             id="tspan44"
             style="font-size:9px;font-variant:normal;writing-mode:lr-tb;fill:#000000;fill-opacity:1;fill-rule:nonzero;stroke:none;font-family:f-0;-inkscape-font-specification:f-0-0">InLink NPP</tspan></text>
</g><path
         d="m 633.012,722.988 540,0 0,180 -540,0 0,-180 z"
         inkscape:connector-curvature="0"
         id="path46"
         style="fill:none;stroke:#000000;stroke-width:6;stroke-linecap:butt;stroke-linejoin:miter;stroke-miterlimit:3.8599999;stroke-opacity:1;stroke-dasharray:none" /><g
         transform="scale(10,10)"
         id="g48"><text
           transform="matrix(1,0,0,-1,71.5898,78.4398)"
           id="text50"><tspan
             x="0 2.5020001 7.506 12.51 14.508 19.511999 24.011999 26.514 32.516998"
             y="0"
             id="tspan52"
             style="font-size:9px;font-variant:normal;writing-mode:lr-tb;fill:#000000;fill-opacity:1;fill-rule:nonzero;stroke:none;font-family:f-0;-inkscape-font-specification:f-0-0">InLink PP</tspan></text>
</g><path
         d="m 3.01172,362.988 180,0 0,180 -180,0 0,-180 z"
         inkscape:connector-curvature="0"
         id="path54"
         style="fill:none;stroke:#000000;stroke-width:6;stroke-linecap:butt;stroke-linejoin:miter;stroke-miterlimit:3.8599999;stroke-opacity:1;stroke-dasharray:none" /><g
         transform="scale(10,10)"
         id="g56"><text
           transform="matrix(1,0,0,-1,6.01016,42.4398)"
           id="text58"><tspan
             x="0"
             y="0"
             id="tspan60"
             style="font-size:9px;font-variant:normal;writing-mode:lr-tb;fill:#000000;fill-opacity:1;fill-rule:nonzero;stroke:none;font-family:f-0;-inkscape-font-specification:f-0-0">A</tspan></text>
</g><path
         d="m 2433.01,182.988 180,0 0,180 -180,0 0,-180 z"
         inkscape:connector-curvature="0"
         id="path62"
         style="fill:none;stroke:#000000;stroke-width:6;stroke-linecap:butt;stroke-linejoin:miter;stroke-miterlimit:3.8599999;stroke-opacity:1;stroke-dasharray:none" /><g
         transform="scale(10,10)"
         id="g64"><text
           transform="matrix(1,0,0,-1,249.01,24.4398)"
           id="text66"><tspan
             x="0"
             y="0"
             id="tspan68"
             style="font-size:9px;font-variant:normal;writing-mode:lr-tb;fill:#000000;fill-opacity:1;fill-rule:nonzero;stroke:none;font-family:f-0;-inkscape-font-specification:f-0-0">C</tspan></text>
</g><path
         d="m 623.91,812.988 -48.601,0 m 2.5,-13.199 46.101,13.199 -46.101,13.211 m -2.5,-13.211 -482.2973,0 0,-270 M 623.91,92.9883 l -48.601,0 m 2.5,-13.1992 46.101,13.1992 -46.101,13.2107 m -2.5,-13.2107 -482.2973,0 0,269.9997 M 2523.01,173.891 l 0,-48.59 m 13.2,2.5 -13.2,46.09 -13.21,-46.09 m 13.21,-2.5 0,-32.3127 -1350,0 m 1350,639.1017 0,48.601 m -13.21,-2.5 13.21,-46.101 13.2,46.101 m -13.2,2.5 0,32.297 -1350,0 m 170.9,-360 -48.6,0 m 2.5,-13.199 46.1,13.199 -46.1,13.211 m -2.5,-13.211 -122.3,0 m 1250.9,180 -48.6,0 m 2.5,-13.199 46.1,13.199 -46.1,13.211 m -2.5,-13.211 -212.3,0 m 260.9,-360 -48.6,0 m 2.5,-13.199 46.1,13.199 -46.1,13.211 m -2.5,-13.211 -212.3,0 m -549.1,360 -48.6,0 m 2.5,-13.199 46.1,13.199 -46.1,13.211 m -2.5,-13.211 -212.3,0 0,-180 m 260.9,-180 -48.6,0 m 2.5,-13.199 46.1,13.199 -46.1,13.211 m -2.5,-13.211 -212.3,0 0,180"
         inkscape:connector-curvature="0"
         id="path70"
         style="fill:none;stroke:#000000;stroke-width:6;stroke-linecap:butt;stroke-linejoin:miter;stroke-miterlimit:3.8599999;stroke-opacity:1;stroke-dasharray:none" /></g></g></svg>