<?xml version="1.0" encoding="UTF-8" standalone="no"?>
<!-- Created with Inkscape (http://www.inkscape.org/) -->

<svg
   xmlns:dc="http://purl.org/dc/elements/1.1/"
   xmlns:cc="http://creativecommons.org/ns#"
   xmlns:rdf="http://www.w3.org/1999/02/22-rdf-syntax-ns#"
   xmlns:svg="http://www.w3.org/2000/svg"
   xmlns="http://www.w3.org/2000/svg"
   xmlns:inkscape="http://www.inkscape.org/namespaces/inkscape"
   version="1.1"
   width="416.25"
   height="305"
   id="svg2"
   xml:space="preserve"><metadata
     id="metadata8"><rdf:RDF><cc:Work
         rdf:about=""><dc:format>image/svg+xml</dc:format><dc:type
           rdf:resource="http://purl.org/dc/dcmitype/StillImage" /></cc:Work></rdf:RDF></metadata><defs
     id="defs6" /><g
     transform="matrix(1.25,0,0,-1.25,0,305)"
     id="g10"><g
       transform="scale(0.1,0.1)"
       id="g12"><path
         d="m 543.012,2342.99 -540.00028,0 m 3149.87828,0 -2067.5,0 M 992.891,92.9883 l -989.87928,0 m 3239.87828,0 -1710,0"
         inkscape:connector-curvature="0"
         id="path14"
         style="fill:none;stroke:#000000;stroke-width:6;stroke-linecap:square;stroke-linejoin:miter;stroke-miterlimit:3.8599999;stroke-opacity:1;stroke-dasharray:none" /><path
         d="m 1254.49,1360.69 0,0"
         inkscape:connector-curvature="0"
         id="path16"
         style="fill:#000000;fill-opacity:1;fill-rule:evenodd;stroke:none" /><path
         d="m 2197.7,1455.41 0,0"
         inkscape:connector-curvature="0"
         id="path18"
         style="fill:#000000;fill-opacity:1;fill-rule:evenodd;stroke:none" /><path
         d="m 545.391,2252.99 540,0 0,180 -540,0 0,-180 z"
         inkscape:connector-curvature="0"
         id="path20"
         style="fill:#ffffff;fill-opacity:1;fill-rule:evenodd;stroke:none" /><path
         d="m 545.391,2252.99 540,0 0,180 -540,0 0,-180 z"
         inkscape:connector-curvature="0"
         id="path22"
         style="fill:none;stroke:#000000;stroke-width:6;stroke-linecap:square;stroke-linejoin:miter;stroke-miterlimit:3.8599999;stroke-opacity:1;stroke-dasharray:none" /><g
         transform="scale(10,10)"
         id="g24"><text
           transform="matrix(1,0,0,-1,63.0301,231.07)"
           id="text26"><tspan
             x="0 6.0029998 9.00002 14.49904 19.50304 23.003847 28.502869 33.506866"
             y="0"
             id="tspan28"
             style="font-size:9px;font-variant:normal;writing-mode:lr-tb;fill:#000000;fill-opacity:1;fill-rule:nonzero;stroke:none;font-family:f-0;-inkscape-font-specification:f-0-0">Ethernet</tspan></text>
</g><path
         d="m 1625.39,2333.89 0,-38.98 m 10.39,2.5 -10.39,36.48 -10.51,-36.48 m 10.51,-125.32 0,39.03 m -10.51,-2.5 10.51,-36.53 10.39,36.53 m -10.39,2.5 0,83.79"
         inkscape:connector-curvature="0"
         id="path30"
         style="fill:none;stroke:#000000;stroke-width:6;stroke-linecap:butt;stroke-linejoin:miter;stroke-miterlimit:3.8599999;stroke-opacity:1;stroke-dasharray:none" /><path
         d="m 1355.39,1892.99 540,0 0,270 -540,0 0,-270 z"
         inkscape:connector-curvature="0"
         id="path32"
         style="fill:#ffffff;fill-opacity:1;fill-rule:evenodd;stroke:none" /><path
         d="m 1355.39,1892.99 540,0 0,270 -540,0 0,-270 z"
         inkscape:connector-curvature="0"
         id="path34"
         style="fill:none;stroke:#000000;stroke-width:6;stroke-linecap:square;stroke-linejoin:miter;stroke-miterlimit:3.8599999;stroke-opacity:1;stroke-dasharray:none" /><g
         transform="scale(10,10)"
         id="g36"><text
           transform="matrix(1,0,0,-1,144.7,205.41)"
           id="text38"><tspan
             x="0 6.4980001 11.997117 17.001118 22.491251 27.990271 32.99427"
             y="0"
             id="tspan40"
             style="font-size:9px;font-variant:normal;writing-mode:lr-tb;fill:#000000;fill-opacity:1;fill-rule:nonzero;stroke:none;font-family:f-0;-inkscape-font-specification:f-0-0">Channel</tspan><tspan
             x="1.98984 8.487957 13.491863 18.49577 23.499769 28.503769"
             y="9"
             id="tspan42"
             style="font-size:9px;font-variant:normal;writing-mode:lr-tb;fill:#000000;fill-opacity:1;fill-rule:nonzero;stroke:none;font-family:f-0;-inkscape-font-specification:f-0-0">Access</tspan></text>
</g><path
         d="m 2165.39,1982.99 540,0 0,180 -540,0 0,-180 z"
         inkscape:connector-curvature="0"
         id="path44"
         style="fill:#ffffff;fill-opacity:1;fill-rule:evenodd;stroke:none" /><path
         d="m 2165.39,1982.99 540,0 0,180 -540,0 0,-180 z"
         inkscape:connector-curvature="0"
         id="path46"
         style="fill:none;stroke:#000000;stroke-width:6;stroke-linecap:square;stroke-linejoin:miter;stroke-miterlimit:3.8599999;stroke-opacity:1;stroke-dasharray:none" /><g
         transform="scale(10,10)"
         id="g48"><text
           transform="matrix(1,0,0,-1,221.03,204.07)"
           id="text50"><tspan
             x="0 6.0029998 11.007 16.505922 22.004942 27.000055 32.499073 37.502979 42.506981"
             y="0"
             id="tspan52"
             style="font-size:9px;font-variant:normal;writing-mode:lr-tb;fill:#000000;fill-opacity:1;fill-rule:nonzero;stroke:none;font-family:f-0;-inkscape-font-specification:f-0-0">Sequencer</tspan></text>
</g><path
         d="m 453.012,1442.99 539.879,0 0,180 -539.879,0 0,-180 z"
         inkscape:connector-curvature="0"
         id="path54"
         style="fill:#ffffff;fill-opacity:1;fill-rule:evenodd;stroke:none" /><path
         d="m 453.012,1442.99 539.879,0 0,180 -539.879,0 0,-180 z"
         inkscape:connector-curvature="0"
         id="path56"
         style="fill:none;stroke:#000000;stroke-width:6;stroke-linecap:square;stroke-linejoin:miter;stroke-miterlimit:3.8599999;stroke-opacity:1;stroke-dasharray:none" /><g
         transform="scale(10,10)"
         id="g58"><text
           transform="matrix(1,0,0,-1,53.7898,150.07)"
           id="text60"><tspan
             x="0 6.0029998 11.007102 16.011101 21.51022 27.009239 32.004353 35.37928"
             y="0"
             id="tspan62"
             style="font-size:9px;font-variant:normal;writing-mode:lr-tb;fill:#000000;fill-opacity:1;fill-rule:nonzero;stroke:none;font-family:f-0;-inkscape-font-specification:f-0-0">Scanners</tspan></text>
</g><path
         d="m 2075.39,1679.71 540,0 0,180 -540,0 0,-180 z"
         inkscape:connector-curvature="0"
         id="path64"
         style="fill:#ffffff;fill-opacity:1;fill-rule:evenodd;stroke:none" /><path
         d="m 2075.39,1679.71 540,0 0,180 -540,0 0,-180 z"
         inkscape:connector-curvature="0"
         id="path66"
         style="fill:none;stroke:#000000;stroke-width:6;stroke-linecap:square;stroke-linejoin:miter;stroke-miterlimit:3.8599999;stroke-opacity:1;stroke-dasharray:none" /><g
         transform="scale(10,10)"
         id="g68"><text
           transform="matrix(1,0,0,-1,216.03,173.74)"
           id="text70"><tspan
             x="0 7.4970002 12.995825 18.494844 20.996845 23.99367 29.492689 32.858635"
             y="0"
             id="tspan72"
             style="font-size:9px;font-variant:normal;writing-mode:lr-tb;fill:#000000;fill-opacity:1;fill-rule:nonzero;stroke:none;font-family:f-0;-inkscape-font-specification:f-0-0">Monitors</tspan></text>
</g><path
         d="m 1904.41,2072.99 38.99,0 m -2.5,10.51 -36.49,-10.51 36.49,-10.51 m 215.39,10.51 -38.99,0 m 2.5,-10.51 36.49,10.51 -36.49,10.51 m -2.5,-10.51 -173.9,0"
         inkscape:connector-curvature="0"
         id="path74"
         style="fill:none;stroke:#000000;stroke-width:6;stroke-linecap:butt;stroke-linejoin:miter;stroke-miterlimit:3.8599999;stroke-opacity:1;stroke-dasharray:none" /><path
         d="m 1352.89,1442.99 540,0 0,270 -540,0 0,-270 z"
         inkscape:connector-curvature="0"
         id="path76"
         style="fill:#ffffff;fill-opacity:1;fill-rule:evenodd;stroke:none" /><path
         d="m 1352.89,1442.99 540,0 0,270 -540,0 0,-270 z"
         inkscape:connector-curvature="0"
         id="path78"
         style="fill:none;stroke:#000000;stroke-width:6;stroke-linecap:square;stroke-linejoin:miter;stroke-miterlimit:3.8599999;stroke-opacity:1;stroke-dasharray:none" /><g
         transform="scale(10,10)"
         id="g80"><text
           transform="matrix(1,0,0,-1,142.2,160.41)"
           id="text82"><tspan
             x="0 6.4980001 11.502 14.49902 19.503019 25.002136 29.99725 35.001156"
             y="0"
             id="tspan84"
             style="font-size:9px;font-variant:normal;writing-mode:lr-tb;fill:#000000;fill-opacity:1;fill-rule:nonzero;stroke:none;font-family:f-0;-inkscape-font-specification:f-0-0">Database</tspan><tspan
             x="4.2496099 10.747727 15.751634 20.755539 25.759541 30.76354"
             y="9"
             id="tspan86"
             style="font-size:9px;font-variant:normal;writing-mode:lr-tb;fill:#000000;fill-opacity:1;fill-rule:nonzero;stroke:none;font-family:f-0;-inkscape-font-specification:f-0-0">Access</tspan></text>
</g><path
         d="m 1625.39,1883.89 0,-38.98 m 10.39,2.5 -10.39,36.48 -10.51,-36.48 m 10.51,-125.32 0,39.03 m -10.51,-2.5 10.51,-36.53 10.39,36.53 m -10.39,2.5 0,83.79 m 440.9,-41.92 -38.99,0 m 2.5,-10.51 36.49,10.51 -36.49,10.51 m -224.41,70.39 0,-38.98 m 10.39,2.5 -10.39,36.48 -10.51,-36.48 m 10.51,-2.5 0,-41.92 221.91,0 m 38.99,-90 -38.99,0 m 2.5,-10.51 36.49,10.51 -36.49,10.51 m -125.39,-10.51 38.99,0 m -2.5,10.51 -36.49,-10.51 36.49,-10.51 m 2.5,10.51 83.9,0"
         inkscape:connector-curvature="0"
         id="path88"
         style="fill:none;stroke:#000000;stroke-width:6;stroke-linecap:butt;stroke-linejoin:miter;stroke-miterlimit:3.8599999;stroke-opacity:1;stroke-dasharray:none" /><path
         d="m 2702.89,1442.99 630,0 0,180 -630,0 0,-180 z"
         inkscape:connector-curvature="0"
         id="path90"
         style="fill:#ffffff;fill-opacity:1;fill-rule:evenodd;stroke:none" /><path
         d="m 2702.89,1442.99 630,0 0,180 -630,0 0,-180 z"
         inkscape:connector-curvature="0"
         id="path92"
         style="fill:none;stroke:#000000;stroke-width:6;stroke-linecap:square;stroke-linejoin:miter;stroke-miterlimit:3.8599999;stroke-opacity:1;stroke-dasharray:none" /><g
         transform="scale(10,10)"
         id="g94"><text
           transform="matrix(1,0,0,-1,273.79,150.07)"
           id="text96"><tspan
             x="0 2.5020001 9.5039997 16.002001 18.504 25.002001 30.006001 33.002823 38.006824 43.505943 48.509941 53.513943"
             y="0"
             id="tspan98"
             style="font-size:9px;font-variant:normal;writing-mode:lr-tb;fill:#000000;fill-opacity:1;fill-rule:nonzero;stroke:none;font-family:f-0;-inkscape-font-specification:f-0-0">IOC Database</tspan></text>
</g><path
         d="m 1001.99,1532.99 39.03,0 m -2.5,10.51 -36.53,-10.51 36.53,-10.51 m 305.39,10.51 -39.03,0 m 2.5,-10.51 36.53,10.51 -36.53,10.51 m -2.5,-10.51 -263.86,0 m 1652.89,0 -39.03,0 m 2.5,-10.51 36.53,10.51 -36.53,10.51 m -755.39,-10.51 39.03,0 m -2.5,10.51 -36.53,-10.51 36.53,-10.51 m 2.5,10.51 713.86,0"
         inkscape:connector-curvature="0"
         id="path100"
         style="fill:none;stroke:#000000;stroke-width:6;stroke-linecap:butt;stroke-linejoin:miter;stroke-miterlimit:3.8599999;stroke-opacity:1;stroke-dasharray:none" /><path
         d="m 354.609,910.691 0,0"
         inkscape:connector-curvature="0"
         id="path102"
         style="fill:#000000;fill-opacity:1;fill-rule:evenodd;stroke:none" /><path
         d="m 453.012,812.988 539.879,0 0,450 -539.879,0 0,-450 z"
         inkscape:connector-curvature="0"
         id="path104"
         style="fill:#ffffff;fill-opacity:1;fill-rule:evenodd;stroke:none" /><path
         d="m 453.012,812.988 539.879,0 0,450 -539.879,0 0,-450 z"
         inkscape:connector-curvature="0"
         id="path106"
         style="fill:none;stroke:#000000;stroke-width:6;stroke-linecap:square;stroke-linejoin:miter;stroke-miterlimit:3.8599999;stroke-opacity:1;stroke-dasharray:none" /><g
         transform="scale(10,10)"
         id="g108"><text
           transform="matrix(1,0,0,-1,53.45,115.41)"
           id="text110"><tspan
             x="0 6.4980001 9.9988079 12.500809 17.504715 22.508715 26.00054 28.511425 34.010445"
             y="0"
             id="tspan112"
             style="font-size:9px;font-variant:normal;writing-mode:lr-tb;fill:#000000;fill-opacity:1;fill-rule:nonzero;stroke:none;font-family:f-0;-inkscape-font-specification:f-0-0">Driver or</tspan><tspan
             x="4.3199201 10.81792 15.686958 20.690865 23.192865 28.196772"
             y="9"
             id="tspan114"
             style="font-size:9px;font-variant:normal;writing-mode:lr-tb;fill:#000000;fill-opacity:1;fill-rule:nonzero;stroke:none;font-family:f-0;-inkscape-font-specification:f-0-0">Device</tspan><tspan
             x="0.26014999 2.76215 8.2610722 11.257896 16.261896 19.762705 23.263805 28.762827 34.261845"
             y="18"
             id="tspan116"
             style="font-size:9px;font-variant:normal;writing-mode:lr-tb;fill:#000000;fill-opacity:1;fill-rule:nonzero;stroke:none;font-family:f-0;-inkscape-font-specification:f-0-0">Interrupt</tspan><tspan
             x="-0.48945901 6.0085411 11.507658 17.006678 20.003502 22.505503 27.995537 32.999538"
             y="27"
             id="tspan118"
             style="font-size:9px;font-variant:normal;writing-mode:lr-tb;fill:#000000;fill-opacity:1;fill-rule:nonzero;stroke:none;font-family:f-0;-inkscape-font-specification:f-0-0">Routines</tspan></text>
</g><path
         d="m 723.012,1433.89 0,-38.98 m 10.386,2.5 -10.386,36.48 -10.512,-36.48 m 10.512,-125.32 0,39.03 m -10.512,-2.5 10.512,-36.53 10.386,36.53 m -10.386,2.5 0,83.79"
         inkscape:connector-curvature="0"
         id="path120"
         style="fill:none;stroke:#000000;stroke-width:6;stroke-linecap:butt;stroke-linejoin:miter;stroke-miterlimit:3.8599999;stroke-opacity:1;stroke-dasharray:none" /><path
         d="m 1892.89,1082.99 810,0 0,180 -810,0 0,-180 z"
         inkscape:connector-curvature="0"
         id="path122"
         style="fill:#ffffff;fill-opacity:1;fill-rule:evenodd;stroke:none" /><path
         d="m 1892.89,1082.99 810,0 0,180 -810,0 0,-180 z"
         inkscape:connector-curvature="0"
         id="path124"
         style="fill:none;stroke:#000000;stroke-width:6;stroke-linecap:square;stroke-linejoin:miter;stroke-miterlimit:3.8599999;stroke-opacity:1;stroke-dasharray:none" /><g
         transform="scale(10,10)"
         id="g126"><text
           transform="matrix(1,0,0,-1,197.79,114.74)"
           id="text128"><tspan
             x="0 6.4980001 11.502 16.506102 22.005121 25.326145 30.825165 33.327164 39.330166 44.829281 50.3283 55.82732 61.317356 64.998535"
             y="0"
             id="tspan130"
             style="font-size:9px;font-variant:normal;writing-mode:lr-tb;fill:#000000;fill-opacity:1;fill-rule:nonzero;stroke:none;font-family:f-0;-inkscape-font-specification:f-0-0">Record Support</tspan></text>
</g><path
         d="m 1712.89,722.988 1170,0 0,180 -1170,0 0,-180 z"
         inkscape:connector-curvature="0"
         id="path132"
         style="fill:#ffffff;fill-opacity:1;fill-rule:evenodd;stroke:none" /><path
         d="m 1712.89,722.988 1170,0 0,180 -1170,0 0,-180 z"
         inkscape:connector-curvature="0"
         id="path134"
         style="fill:none;stroke:#000000;stroke-width:6;stroke-linecap:square;stroke-linejoin:miter;stroke-miterlimit:3.8599999;stroke-opacity:1;stroke-dasharray:none" /><g
         transform="scale(10,10)"
         id="g136"><text
           transform="matrix(1,0,0,-1,195.28,78.7398)"
           id="text138"><tspan
             x="0 6.4980001 11.367039 16.370945 18.872946 23.876852 28.880852 31.382851 37.385853 42.884678 48.383698 53.87373 59.372749 63.053932"
             y="0"
             id="tspan140"
             style="font-size:9px;font-variant:normal;writing-mode:lr-tb;fill:#000000;fill-opacity:1;fill-rule:nonzero;stroke:none;font-family:f-0;-inkscape-font-specification:f-0-0">Device Support</tspan></text>
</g><path
         d="m 2342.89,1670.61 0,-39.02 m 10.51,2.5 -10.51,36.52 -10.39,-36.52 m 10.39,-362 0,39.03 m -10.39,-2.5 10.39,-36.53 10.51,36.53 m -10.51,2.5 0,320.47 m 351.02,-188.6 -39.03,0 m 2.5,-10.51 36.53,10.51 -36.53,10.51 m -44.49,-181.41 0,39.03 m -10.39,-2.5 10.39,-36.53 10.51,36.53 m -10.51,2.5 0,131.87 41.99,0 m 138.01,-9.1 0,-38.98 m 10.51,2.5 -10.51,36.48 -10.39,-36.48 m 10.39,-485.32 0,39.031 m -10.39,-2.5 10.39,-36.531 10.51,36.531 m -10.51,2.5 0,443.789 m -990,38.98 0,-38.98 m 10.51,2.5 -10.51,36.48 -10.39,-36.48 m 10.39,-485.32 0,39.031 m -10.39,-2.5 10.39,-36.531 10.51,36.531 m -10.51,2.5 0,443.789 m 99.1,48.08 39.03,0 m -2.5,10.51 -36.53,-10.51 36.53,-10.51 m 44.37,-160.39 0,39.03 m -10.39,-2.5 10.39,-36.53 10.51,36.53 m -10.51,2.5 0,131.87 -41.87,0"
         inkscape:connector-curvature="0"
         id="path142"
         style="fill:none;stroke:#000000;stroke-width:6;stroke-linecap:butt;stroke-linejoin:miter;stroke-miterlimit:3.8599999;stroke-opacity:1;stroke-dasharray:none" /><path
         d="m 2244.49,190.691 0,0"
         inkscape:connector-curvature="0"
         id="path144"
         style="fill:#000000;fill-opacity:1;fill-rule:evenodd;stroke:none" /><path
         d="m 2342.89,272.988 540,0 0,270 -540,0 0,-270 z"
         inkscape:connector-curvature="0"
         id="path146"
         style="fill:#ffffff;fill-opacity:1;fill-rule:evenodd;stroke:none" /><path
         d="m 2342.89,272.988 540,0 0,270 -540,0 0,-270 z"
         inkscape:connector-curvature="0"
         id="path148"
         style="fill:none;stroke:#000000;stroke-width:6;stroke-linecap:square;stroke-linejoin:miter;stroke-miterlimit:3.8599999;stroke-opacity:1;stroke-dasharray:none" /><g
         transform="scale(10,10)"
         id="g150"><text
           transform="matrix(1,0,0,-1,246.77,43.4102)"
           id="text152"><tspan
             x="0 6.4980001 11.367039 16.370945 18.872946 23.876852"
             y="0"
             id="tspan154"
             style="font-size:9px;font-variant:normal;writing-mode:lr-tb;fill:#000000;fill-opacity:1;fill-rule:nonzero;stroke:none;font-family:f-0;-inkscape-font-specification:f-0-0">Device</tspan><tspan
             x="-1 5.4980001 8.9988079 11.500809 16.504715 21.508715 24.874758"
             y="9"
             id="tspan156"
             style="font-size:9px;font-variant:normal;writing-mode:lr-tb;fill:#000000;fill-opacity:1;fill-rule:nonzero;stroke:none;font-family:f-0;-inkscape-font-specification:f-0-0">Drivers</tspan></text>
</g><path
         d="m 2612.89,713.891 0,-38.981 m 10.51,2.5 -10.51,36.481 -10.39,-36.481 m 10.39,-125.32 0,39.031 m -10.39,-2.5 10.39,-36.531 10.51,36.531 m -10.51,2.5 0,83.789 m -630,38.981 0,-38.911 m 10.51,2.5 -10.51,36.411 -10.39,-36.411 m 10.39,-575.39 0,39.031 m -10.39,-2.5 10.39,-36.531 10.51,36.531 m -10.51,2.5 0,533.859 m 630,-411.089 0,-38.981 m 10.51,2.5 -10.51,36.481 -10.39,-36.481 m 10.39,-125.32 0,39.031 m -10.39,-2.5 10.39,-36.531 10.51,36.531 m -10.51,2.5 0,83.789"
         inkscape:connector-curvature="0"
         id="path158"
         style="fill:none;stroke:#000000;stroke-width:6;stroke-linecap:butt;stroke-linejoin:miter;stroke-miterlimit:3.8599999;stroke-opacity:1;stroke-dasharray:none" /><path
         d="m 992.891,2.98828 540,0 0,180 -540,0 0,-180 z"
         inkscape:connector-curvature="0"
         id="path160"
         style="fill:#ffffff;fill-opacity:1;fill-rule:evenodd;stroke:none" /><path
         d="m 992.891,2.98828 540,0 0,180 -540,0 0,-180 z"
         inkscape:connector-curvature="0"
         id="path162"
         style="fill:none;stroke:#000000;stroke-width:6;stroke-linecap:square;stroke-linejoin:miter;stroke-miterlimit:3.8599999;stroke-opacity:1;stroke-dasharray:none" /><g
         transform="scale(10,10)"
         id="g164"><text
           transform="matrix(1,0,0,-1,115.12,6.06992)"
           id="text166"><tspan
             x="0 6.0029998 13.5"
             y="0"
             id="tspan168"
             style="font-size:9px;font-variant:normal;writing-mode:lr-tb;fill:#000000;fill-opacity:1;fill-rule:nonzero;stroke:none;font-family:f-0;-inkscape-font-specification:f-0-0">VME</tspan></text>
</g><path
         d="m 723.012,803.891 0,-38.911 m 10.386,2.5 -10.386,36.411 L 712.5,767.48 m 10.512,-665.39 0,39.031 m -10.512,-2.5 10.512,-36.531 10.386,36.531 m -10.386,2.5 0,623.859 m 1619.878,308.91 0,-38.98 m 10.51,2.5 -10.51,36.48 -10.39,-36.48 m 10.39,-125.32 0,39.031 m -10.39,-2.5 10.39,-36.531 10.51,36.531 m -10.51,2.5 0,83.789"
         inkscape:connector-curvature="0"
         id="path170"
         style="fill:none;stroke:#000000;stroke-width:6;stroke-linecap:butt;stroke-linejoin:miter;stroke-miterlimit:3.8599999;stroke-opacity:1;stroke-dasharray:none" /></g></g></svg>