<?xml version="1.0" encoding="UTF-8" standalone="no"?>
<!-- Created with Inkscape (http://www.inkscape.org/) -->

<svg
   xmlns:dc="http://purl.org/dc/elements/1.1/"
   xmlns:cc="http://creativecommons.org/ns#"
   xmlns:rdf="http://www.w3.org/1999/02/22-rdf-syntax-ns#"
   xmlns:svg="http://www.w3.org/2000/svg"
   xmlns="http://www.w3.org/2000/svg"
   xmlns:inkscape="http://www.inkscape.org/namespaces/inkscape"
   version="1.1"
   width="325"
   height="113.75"
   id="svg2"
   xml:space="preserve"><metadata
     id="metadata8"><rdf:RDF><cc:Work
         rdf:about=""><dc:format>image/svg+xml</dc:format><dc:type
           rdf:resource="http://purl.org/dc/dcmitype/StillImage" /></cc:Work></rdf:RDF></metadata><defs
     id="defs6" /><g
     transform="matrix(1.25,0,0,-1.25,0,113.75)"
     id="g10"><g
       transform="scale(0.1,0.1)"
       id="g12"><path
         d="m 1635.9,2.98828 270,0 0,180 -270,0 0,-180 z"
         inkscape:connector-curvature="0"
         id="path14"
         style="fill:#ffffff;fill-opacity:1;fill-rule:evenodd;stroke:none" /><path
         d="m 1635.9,2.98828 270,0 0,180 -270,0 0,-180 z"
         inkscape:connector-curvature="0"
         id="path16"
         style="fill:none;stroke:#000000;stroke-width:6;stroke-linecap:square;stroke-linejoin:miter;stroke-miterlimit:3.8599999;stroke-opacity:1;stroke-dasharray:none" /><g
         transform="scale(10,10)"
         id="g18"><text
           transform="matrix(1,0,0,-1,168.589,7.16016)"
           id="text20"><tspan
             x="0 2.5020001 9.5039997"
             y="0"
             id="tspan22"
             style="font-size:9px;font-variant:normal;writing-mode:lr-tb;fill:#000000;fill-opacity:1;fill-rule:nonzero;stroke:none;font-family:f-0;-inkscape-font-specification:f-0-0">IOC</tspan></text>
</g><path
         d="m 2327.27,452.988 -2250.0005,0 m 421.4025,0 0,270 m 838.598,-270 0,270 m 810,-270 0,270 m -360,-540 0,270"
         inkscape:connector-curvature="0"
         id="path24"
         style="fill:none;stroke:#000000;stroke-width:10.80000019;stroke-linecap:square;stroke-linejoin:miter;stroke-miterlimit:3.8599999;stroke-opacity:1;stroke-dasharray:none" /><path
         d="m 2327.27,362.988 270,0 0,180 -270,0 0,-180 z"
         inkscape:connector-curvature="0"
         id="path26"
         style="fill:#ffffff;fill-opacity:1;fill-rule:evenodd;stroke:none" /><path
         d="m 2327.27,362.988 270,0 0,180 -270,0 0,-180 z"
         inkscape:connector-curvature="0"
         id="path28"
         style="fill:none;stroke:#000000;stroke-width:6;stroke-linecap:square;stroke-linejoin:miter;stroke-miterlimit:3.8599999;stroke-opacity:1;stroke-dasharray:none" /><g
         transform="scale(10,10)"
         id="g30"><text
           transform="matrix(1,0,0,-1,236.298,43.1602)"
           id="text32"><tspan
             x="0 5.4990196 11.997137"
             y="0"
             id="tspan34"
             style="font-size:9px;font-variant:normal;writing-mode:lr-tb;fill:#000000;fill-opacity:1;fill-rule:nonzero;stroke:none;font-family:f-0;-inkscape-font-specification:f-0-0">LAN</tspan></text>
</g><path
         d="m 977.27,182.988 0,270"
         inkscape:connector-curvature="0"
         id="path36"
         style="fill:none;stroke:#000000;stroke-width:10.80000019;stroke-linecap:square;stroke-linejoin:miter;stroke-miterlimit:3.8599999;stroke-opacity:1;stroke-dasharray:none" /><path
         d="m 825.898,2.98828 270,0 0,180 -270,0 0,-180 z"
         inkscape:connector-curvature="0"
         id="path38"
         style="fill:#ffffff;fill-opacity:1;fill-rule:evenodd;stroke:none" /><path
         d="m 825.898,2.98828 270,0 0,180 -270,0 0,-180 z"
         inkscape:connector-curvature="0"
         id="path40"
         style="fill:none;stroke:#000000;stroke-width:6;stroke-linecap:square;stroke-linejoin:miter;stroke-miterlimit:3.8599999;stroke-opacity:1;stroke-dasharray:none" /><g
         transform="scale(10,10)"
         id="g42"><text
           transform="matrix(1,0,0,-1,87.5887,7.16016)"
           id="text44"><tspan
             x="0 2.5020001 9.5039997"
             y="0"
             id="tspan46"
             style="font-size:9px;font-variant:normal;writing-mode:lr-tb;fill:#000000;fill-opacity:1;fill-rule:nonzero;stroke:none;font-family:f-0;-inkscape-font-specification:f-0-0">IOC</tspan></text>
</g><path
         d="m 347.27,722.988 270,0 0,180 -270,0 0,-180 z"
         inkscape:connector-curvature="0"
         id="path48"
         style="fill:#ffffff;fill-opacity:1;fill-rule:evenodd;stroke:none" /><path
         d="m 347.27,722.988 270,0 0,180 -270,0 0,-180 z"
         inkscape:connector-curvature="0"
         id="path50"
         style="fill:none;stroke:#000000;stroke-width:6;stroke-linecap:square;stroke-linejoin:miter;stroke-miterlimit:3.8599999;stroke-opacity:1;stroke-dasharray:none" /><g
         transform="scale(10,10)"
         id="g52"><text
           transform="matrix(1,0,0,-1,40.4387,79.1602)"
           id="text54"><tspan
             x="0 7.0019999 13.005"
             y="0"
             id="tspan56"
             style="font-size:9px;font-variant:normal;writing-mode:lr-tb;fill:#000000;fill-opacity:1;fill-rule:nonzero;stroke:none;font-family:f-0;-inkscape-font-specification:f-0-0">OPI</tspan></text>
</g><path
         d="m 1185.9,722.988 270,0 0,180 -270,0 0,-180 z"
         inkscape:connector-curvature="0"
         id="path58"
         style="fill:#ffffff;fill-opacity:1;fill-rule:evenodd;stroke:none" /><path
         d="m 1185.9,722.988 270,0 0,180 -270,0 0,-180 z"
         inkscape:connector-curvature="0"
         id="path60"
         style="fill:none;stroke:#000000;stroke-width:6;stroke-linecap:square;stroke-linejoin:miter;stroke-miterlimit:3.8599999;stroke-opacity:1;stroke-dasharray:none" /><g
         transform="scale(10,10)"
         id="g62"><text
           transform="matrix(1,0,0,-1,124.298,79.1602)"
           id="text64"><tspan
             x="0 7.0019999 13.005"
             y="0"
             id="tspan66"
             style="font-size:9px;font-variant:normal;writing-mode:lr-tb;fill:#000000;fill-opacity:1;fill-rule:nonzero;stroke:none;font-family:f-0;-inkscape-font-specification:f-0-0">OPI</tspan></text>
</g><path
         d="m 1995.9,722.988 270,0 0,180 -270,0 0,-180 z"
         inkscape:connector-curvature="0"
         id="path68"
         style="fill:#ffffff;fill-opacity:1;fill-rule:evenodd;stroke:none" /><path
         d="m 1995.9,722.988 270,0 0,180 -270,0 0,-180 z"
         inkscape:connector-curvature="0"
         id="path70"
         style="fill:none;stroke:#000000;stroke-width:6;stroke-linecap:square;stroke-linejoin:miter;stroke-miterlimit:3.8599999;stroke-opacity:1;stroke-dasharray:none" /><g
         transform="scale(10,10)"
         id="g72"><text
           transform="matrix(1,0,0,-1,204.589,79.1602)"
           id="text74"><tspan
             x="0 7.0019999 13.005"
             y="0"
             id="tspan76"
             style="font-size:9px;font-variant:normal;writing-mode:lr-tb;fill:#000000;fill-opacity:1;fill-rule:nonzero;stroke:none;font-family:f-0;-inkscape-font-specification:f-0-0">OPI</tspan></text>
<text
           transform="matrix(1,0,0,-1,79.729,82.22036)"
           id="text78"><tspan
             x="0 3.892 7.7839999 11.689867 15.581867 84.979729 88.871727 92.763725 96.669594 100.56159 -81 -77.108002 -73.216003 -69.323997 -65.417938"
             y="0"
             id="tspan80"
             style="font-size:14px;font-variant:normal;writing-mode:lr-tb;fill:#000000;fill-opacity:1;fill-rule:nonzero;stroke:none;font-family:f-0;-inkscape-font-specification:f-0-0">. . .. . .. . .</tspan><tspan
             x="-39.320702 -35.428699 -31.536699 -27.630833 -23.738832 48.977028 52.869026 56.775089 60.667091 64.55909"
             y="74.130096"
             id="tspan82"
             style="font-size:14px;font-variant:normal;writing-mode:lr-tb;fill:#000000;fill-opacity:1;fill-rule:nonzero;stroke:none;font-family:f-0;-inkscape-font-specification:f-0-0">. . .. . .</tspan></text>
</g></g></g></svg>